<?xml version="1.0" encoding="utf-8"?>
<!-- Generator: Adobe Illustrator 25.0.1, SVG Export Plug-In . SVG Version: 6.00 Build 0)  -->
<svg version="1.1" xmlns="http://www.w3.org/2000/svg" xmlns:xlink="http://www.w3.org/1999/xlink" x="0px" y="0px"
	 viewBox="0 0 2000 2000" style="enable-background:new 0 0 2000 2000;" xml:space="preserve">
<style type="text/css">
	.st0{display:none;}
	.st1{display:inline;}
	.st2{fill:#E58A7B;}
	.st3{fill:#2C2C2C;}
</style>
<g id="Capa_1" class="st0">
	<g class="st1">
		<path class="st2" d="M1884,1116.62c0,8.97,0,17.94,0,26.91c-0.44,0.06-0.88,0.07-1.32,0.03c-0.42-8.98-0.43-17.97,0-26.95
			C1883.12,1116.59,1883.56,1116.6,1884,1116.62z"/>
		<path class="st2" d="M117.25,1084.64c0.93-3.55-0.58-7.5,1.77-10.82c0.59,8-0.08,15.92-1.32,23.82c-0.56-0.01-1.13-0.01-1.69-0.02
			c0-2.11,0-4.22,0-6.33C118.07,1089.39,117.38,1086.96,117.25,1084.64z"/>
		<path class="st2" d="M988.13,246.14c7.91,0,15.83,0,23.74,0c0.02,0.45,0.05,0.9,0.09,1.35c-7.97,0.01-15.95,0.02-23.92,0.02
			C988.1,247.06,988.13,246.6,988.13,246.14z"/>
		<path class="st2" d="M116.01,1141.94c0-7.39,0-14.77,0-22.16c0.54,0.01,1.08,0.01,1.62,0.02c-0.01,7.38-0.02,14.76-0.03,22.13
			C117.07,1141.94,116.54,1141.94,116.01,1141.94z"/>
		<path class="st2" d="M1882.68,1143.55c0.44,0.04,0.88,0.03,1.32-0.03c0,4.22,0,8.44,0,12.66l-0.66,0.1l-0.66-0.06
			C1882.2,1152,1882.32,1147.78,1882.68,1143.55z"/>
		<path class="st2" d="M116.01,1141.94c0.53,0,1.06,0,1.59-0.01c-0.01,3.7-0.01,7.39-0.02,11.09c-0.53,0.01-1.05,0.01-1.58,0
			C116.01,1149.33,116.01,1145.63,116.01,1141.94z"/>
		<path class="st2" d="M117.63,1119.8c-0.54-0.01-1.08-0.01-1.62-0.02c0-3.69,0-7.39,0-11.08c0.54,0.01,1.09,0.02,1.63,0.03
			C117.64,1112.43,117.63,1116.11,117.63,1119.8z"/>
		<path class="st2" d="M1884,1116.62c-0.44-0.02-0.88-0.03-1.32-0.02c-0.33-3.7-0.52-7.41,0.01-11.11c0.44-0.04,0.88-0.02,1.31,0.05
			C1884,1109.23,1884,1112.93,1884,1116.62z"/>
		<path class="st2" d="M383.5,1752.86c0.01-0.55,0.01-1.09,0.02-1.64c3.68-0.01,7.35-0.03,11.03-0.04c0.01,0.56,0.02,1.12,0.03,1.68
			C390.89,1752.86,387.2,1752.86,383.5,1752.86z"/>
		<path class="st2" d="M117.3,1175.53c-0.46-0.01-0.89-0.13-1.29-0.35c0-3.17,0-6.33,0-9.5c0.59-0.05,1.19-0.11,1.78-0.16
			c0,0-0.04-0.01-0.04-0.01C117.6,1168.85,117.45,1172.19,117.3,1175.53z"/>
		<path class="st2" d="M988.13,246.14c-0.01,0.46-0.04,0.92-0.09,1.38c-3.17-0.03-6.35-0.06-9.52-0.09
			c0.05-0.43,0.09-0.86,0.11-1.29C981.8,246.14,984.97,246.14,988.13,246.14z"/>
		<path class="st2" d="M1011.97,247.5c-0.05-0.45-0.08-0.9-0.09-1.35c3.17,0,6.33,0,9.5,0c-0.03,0.44,0,0.88,0.07,1.31
			C1018.29,247.47,1015.13,247.48,1011.97,247.5z"/>
		<path class="st2" d="M1029.29,246.14c3.17,0,6.33,0,9.5,0c-0.01,0.45,0.01,0.9,0.04,1.35c-3.16,0.52-6.32,0.26-9.47-0.07
			C1029.31,247,1029.28,246.57,1029.29,246.14z"/>
		<path class="st2" d="M1616.51,1751.31c0.03,0.52,0.02,1.03,0,1.55c-3.17,0-6.33,0-9.5,0c-0.01-0.53-0.01-1.05,0.01-1.58
			C1610.18,1751.29,1613.34,1751.3,1616.51,1751.31z"/>
		<path class="st2" d="M978.64,246.14c-0.02,0.43-0.05,0.86-0.11,1.29c-2.1,0.02-4.2,0.03-6.3,0.05c0.06-0.45,0.09-0.89,0.08-1.34
			C974.42,246.14,976.53,246.14,978.64,246.14z"/>
		<path class="st2" d="M972.31,246.14c0.01,0.45-0.01,0.9-0.08,1.34c-2.1,0-4.2-0.01-6.29-0.01c0.03-0.44,0.04-0.89,0.04-1.33
			C968.08,246.14,970.2,246.14,972.31,246.14z"/>
		<path class="st2" d="M965.97,246.14c0,0.45-0.01,0.89-0.04,1.33c-2.11,0-4.22,0-6.33,0c0.02-0.44,0.03-0.89,0.04-1.33
			C961.75,246.14,963.86,246.14,965.97,246.14z"/>
		<path class="st2" d="M116.01,1153.02c0.53,0.02,1.05,0.02,1.58,0c0.29,2.1,0.77,4.2,0.06,6.3c-0.55,0.01-1.09,0.02-1.64,0.02
			C116.01,1157.24,116.01,1155.13,116.01,1153.02z"/>
		<path class="st2" d="M959.64,246.14c-0.01,0.44-0.02,0.89-0.04,1.33c-2.11,0.02-4.21,0.03-6.32,0.05
			c0.03-0.46,0.04-0.92,0.03-1.38C955.42,246.14,957.53,246.14,959.64,246.14z"/>
		<path class="st2" d="M116.01,1159.35c0.55-0.01,1.09-0.02,1.64-0.02c0.35,2.06,0.81,4.11,0.14,6.2c-0.59,0.05-1.19,0.11-1.78,0.16
			C116.01,1163.57,116.01,1161.46,116.01,1159.35z"/>
		<path class="st2" d="M117.64,1108.74c-0.54-0.01-1.09-0.02-1.63-0.03c0-2.11,0-4.22,0-6.33c0.56,0.01,1.12,0.02,1.68,0.04
			C118.3,1104.52,117.86,1106.63,117.64,1108.74z"/>
		<path class="st2" d="M1038.82,247.5c-0.04-0.45-0.05-0.9-0.04-1.35c2.11,0,4.22,0,6.33,0c0.02,0.44,0.04,0.89,0.05,1.33
			C1043.05,247.49,1040.94,247.49,1038.82,247.5z"/>
		<path class="st2" d="M117.25,1084.64c0.13,2.32,0.82,4.74-1.24,6.65c0-2.11,0-4.22,0-6.33
			C116.41,1084.81,116.82,1084.71,117.25,1084.64z"/>
		<path class="st2" d="M117.69,1102.41c-0.56-0.01-1.12-0.02-1.68-0.04c0-1.58,0-3.17,0-4.75c0.56,0.01,1.13,0.01,1.69,0.02
			C118.26,1099.24,118.03,1100.82,117.69,1102.41z"/>
		<path class="st2" d="M1021.45,247.46c-0.08-0.43-0.1-0.87-0.07-1.31c1.58,0,3.17,0,4.75,0c-0.02,0.45,0,0.9,0.06,1.35
			C1024.6,247.48,1023.02,247.47,1021.45,247.46z"/>
		<path class="st2" d="M1026.18,247.49c-0.06-0.45-0.08-0.9-0.06-1.35c1.06,0,2.11,0,3.17,0c0,0.43,0.02,0.86,0.07,1.29
			C1028.3,247.45,1027.24,247.47,1026.18,247.49z"/>
		<path class="st2" d="M1026.18,247.49c1.06-0.02,2.11-0.04,3.17-0.06c3.16,0.33,6.31,0.59,9.47,0.07c2.11-0.01,4.23-0.01,6.34-0.02
			c35.54,2.04,70.93,5.58,106.04,11.54c71.91,12.21,141.54,32.34,208.33,61.73c168.08,73.96,300.31,189.21,395.93,345.98
			c50.6,82.95,85.55,172.34,106.52,267.22c10.54,47.7,17.01,95.94,19.98,144.66c0.54,8.94,0.5,17.91,0.73,26.87
			c-0.53,3.7-0.34,7.4-0.01,11.11c-0.43,8.98-0.41,17.97,0,26.95c-0.37,4.23-0.48,8.45,0,12.68c-0.38,18.71-1.41,37.37-3.1,56.01
			c-4.22,46.76-12.06,92.88-23.47,138.42c-23.36,93.2-60.82,180.3-112.68,261.19c-28.09,43.82-60.09,84.58-95.42,122.79
			c-8.64,9.35-19.31,14.31-31.5,16.66c-3.16-0.01-6.33-0.02-9.49-0.03c-3.05-0.79-6.16-1.4-9.15-2.39
			c-14.96-4.94-25.28-14.76-30.67-29.61c-11.71-32.22-25.26-63.62-42.16-93.47c-85.22-150.48-211.34-247.56-379.38-289.37
			c-60.02-14.93-121.06-19.65-182.81-15.93c-102.4,6.17-197.65,35.16-284.54,89.95c-105.07,66.25-180.75,157.68-229.88,271.41
			c-4.8,11.11-9.31,22.37-13.28,33.79c-6.62,19.03-19.06,31.14-39.12,34.92c-0.51,0.1-0.98,0.39-1.46,0.59
			c-3.68,0.01-7.35,0.03-11.03,0.04c-13.75-2.53-24.47-9.69-33.94-20.01c-96.17-104.79-162.66-225.89-200.32-362.92
			c-13.28-48.33-22.42-97.44-27.15-147.35c-1.14-12.06-2.09-24.14-3.13-36.21c0.29-6.45,0.55-12.9-1.23-19.22
			c0,0,0.04,0.01,0.04,0.01c0.67-2.08,0.2-4.14-0.14-6.2c0.71-2.11,0.23-4.21-0.06-6.3c0.01-3.7,0.01-7.39,0.02-11.09
			c0.01-7.38,0.02-14.76,0.03-22.13c0-3.69,0.01-7.38,0.01-11.06c0.21-2.11,0.66-4.21,0.04-6.33c0.35-1.59,0.58-3.17,0.01-4.76
			c1.24-7.9,1.91-15.82,1.32-23.82c6.18-92.32,25.06-181.87,58.41-268.28c46.43-120.32,115.68-225.56,208.72-314.95
			c104-99.91,225.87-168.94,364.2-209.07c44.56-12.93,89.95-22.09,136.04-27.81c22.25-2.76,44.57-4.46,66.9-6.2
			c2.11-0.02,4.21-0.03,6.32-0.05c2.11,0,4.22,0,6.33,0c2.1,0,4.2,0.01,6.29,0.01c2.1-0.02,4.2-0.03,6.3-0.05
			c3.17,0.03,6.35,0.06,9.52,0.09c7.97-0.01,15.95-0.01,23.92-0.02c3.16-0.01,6.32-0.03,9.48-0.04
			C1023.02,247.47,1024.6,247.48,1026.18,247.49z M1626.05,1614.09c1.55-1.9,2.57-3.09,3.53-4.34
			c45.3-58.78,82.05-122.47,109.63-191.39c36.53-91.29,55.17-186.13,55.95-284.43c0.38-47.3-3.8-94.23-12.09-140.83
			c-10.85-60.95-28.69-119.73-53.56-176.4c-41.93-95.56-100.77-179.42-175.2-252.41c-72.66-71.25-155.54-127.41-249.23-167.33
			c-87.66-37.35-179.2-57.9-274.4-61.71c-62.17-2.49-123.77,2.63-184.78,15.05c-80.61,16.41-156.77,44.72-228.33,85.22
			c-115.46,65.36-209.82,153.57-282.73,264.3C256.77,818.41,214,948.94,206.59,1090.77c-3.64,69.6,2.19,138.58,17.49,206.61
			c25.82,114.85,75.17,218.71,146.87,312.01c1.17,1.52,1.98,3.62,4.13,4.02c90.67-173.38,229.13-290.78,413.17-355.31
			c-0.95-2.36-3.44-3-5.35-4.29c-111.4-75.59-178.51-178.43-192.45-313.7c-4-38.84-0.95-77.43,7.59-115.52
			c16.9-75.37,52.44-140.95,105.66-196.64c69.19-72.41,153.02-116.83,253.09-128.98c52.85-6.42,104.84-1.71,155.54,14.1
			c109.19,34.06,192.11,101.56,247.93,200.99c54.62,97.29,67.06,200.55,34.27,307.64c-30.09,98.27-90.21,174.64-175.6,231.42
			c-2.32,1.54-5.31,2.38-6.44,5C1396.64,1322.66,1535.12,1440.05,1626.05,1614.09z M1317.09,905.33c-0.42-21.79-2.21-45.7-7.6-69.18
			c-24.11-104.91-84.69-179.93-184.58-221.16c-66.61-27.49-135.95-31.38-205.58-13.93c-101.35,25.4-173.07,86.8-212.52,183.87
			c-24.97,61.44-29.66,125.57-16.16,190.29c22.31,106.96,83.52,183.46,184.92,225.23c73.82,30.41,149.96,32.04,226.08,8.57
			c72.62-22.39,129.3-66.36,169.13-131.29C1302.75,1025.62,1316.65,968.38,1317.09,905.33z"/>
		<path class="st2" d="M117.75,1165.51c1.78,6.32,1.53,12.77,1.23,19.22c-2.14-2.78-0.99-6.16-1.68-9.2
			C117.45,1172.19,117.6,1168.85,117.75,1165.51z"/>
	</g>
</g>
<g id="Capa_2">
	<g>
		<path class="st3" d="M1437.56,1791.07c-13.13-8.63-15.69-22.37-18.41-36.46c-9.23-47.84-18.95-95.58-29.35-147.74
			c-10.71,26.47-19.88,48.97-28.91,71.53c-11.56,28.9-23.36,57.7-34.29,86.84c-3.36,8.97-6.97,9.71-15.4,6.34
			c-34.85-13.9-35-13.61-21.29-47.95c26.12-65.4,52.21-130.81,78.53-196.13c3.12-7.73,4.7-15.35,4.68-23.72
			c-0.2-71.72,0.15-143.45-0.4-215.17c-0.09-11.2,2.2-14.58,14-14.33c35.45,0.75,35.46,0.16,35.46,35.61
			c0,40.47,1.54,81.02-0.36,121.4c-2.96,62.99,5.87,124.33,19.72,185.42c8.58,37.87,16.09,76.01,22.98,114.23
			c1.72,9.53,5.41,11.14,13.89,11.1c57.89-0.31,115.79-0.36,173.68,0.04c9.22,0.06,11.07-2.46,9.47-11.22
			c-27.12-147.85-54.21-295.71-80.83-443.66c-10.86-60.39-23.65-120.36-38.38-179.87c-13.49-54.5-48.26-90.23-101.97-106.55
			c-104.52-31.75-209.2-62.96-313.81-94.4c-19.46-5.85-24.05-11.75-24.07-31.62c-0.05-61.48,0.21-122.96-0.2-184.44
			c-0.09-13.17,4.66-22.39,15.4-29.57c22.68-15.16,43.29-32.67,59.62-54.81c15.67-21.26,23.88-44.89,23.56-71.44
			c-0.46-38.41,2.8-77.24-1.74-115.14C1189.26,337,1133.78,279.1,1051,269.01c-58.7-7.15-118.82-7.41-177.71,1.02
			c-56.9,8.15-108.93,59.63-113.88,112.11c-3.48,36.89-12.01,71.19-31.31,104.89c5.66,0.25,9.91,0.6,14.16,0.61
			c58.4,0.13,116.83-0.8,175.2,0.57c74.17,1.73,126.31,42.25,148.74,113.02c7.32,23.09,11.21,46.85,11.31,70.95
			c0.41,101.44,0.3,202.88,0.38,304.32c0,5.49,0,10.98,0,17.83c27.79-12.83,55.19-19.52,84.33-11.85
			c21.8,5.74,39.86,18.3,56.8,32.45c39.21,32.75,71.68,71.7,100.47,113.56c19.55,28.42,28.73,60.95,28.82,95.53
			c0.25,94.27,0.83,188.54-0.24,282.8c-0.52,45.77-22.95,80.06-64.13,100.44c-40.23,19.91-78.26,14.12-113.36-13.3
			c-30.65-23.94-61.26-47.94-92.01-71.77c-33.39-25.88-50.02-59.79-49.89-102.07c0.14-47.65-0.76-95.31,0.45-142.93
			c0.43-17.11-14.49-17.83-22.24-25.78c-5.9-6.06-9.23,5.02-14.53,6.81c-12.65,4.27-13.22,14-13.07,25.56
			c0.58,45.59,0.18,91.19,0.25,136.79c0.06,41.65-16.27,75.34-49.01,101c-31.02,24.31-62.13,48.5-93.27,72.66
			c-35.17,27.3-73.28,32.95-113.4,12.82c-41.01-20.58-63.3-54.84-63.75-100.69c-0.92-94.26-0.43-188.53-0.19-282.8
			c0.09-34.05,9.05-66.17,28.23-94.17c29.3-42.75,62.67-82.17,102.47-115.87c41.85-35.43,87-45.75,139.72-18.46
			c0-10.45,0.5-19.3-0.14-28.07c-0.63-8.6,0.81-12.37,11.18-12.38c38.15-0.03,38.15-0.52,38.15,37.53
			c0,34.84-0.33,69.68,0.17,104.51c0.19,13.16-4.57,22.47-15.59,29.41c-13.4,8.44-26.52,17.34-39.62,26.25
			c-16.11,10.96-22.43,27.35-17.75,45.28c3.86,14.83,16.52,25.91,31.52,27.6c15.97,1.8,29.02-6.61,38.45-24.74
			c2.12-4.08,3.94-8.4,6.62-12.09c10.76-14.79,31.07-14.74,41.69,0.21c3.22,4.54,5.22,9.93,7.91,14.87
			c8.48,15.56,22.23,23.87,37.24,21.67c15.54-2.28,26.13-11.04,30.81-26.27c4.95-16.11,0.47-33.13-12.58-42.93
			c-13.06-9.81-26.55-19.24-40.67-27.4c-14.05-8.12-19.31-18.93-19.26-35.13c0.45-135.25,0.21-270.51,0.3-405.76
			c0.02-23.15-1.83-46.02-8.25-68.34c-14.66-50.96-49.24-80.46-102.13-81.73c-72.71-1.74-145.49-0.48-218.24-0.81
			c-9.89-0.04-14.67,5.65-15.22,13.55c-0.64,9.12,6.65,11.38,14.77,11.22c10.24-0.2,20.5-0.25,30.74,0
			c18.09,0.44,27.44,9.6,27.7,27.5c0.28,19.46,0.62,38.96-0.16,58.39c-0.4,9.87,2.21,12.83,12.45,12.69
			c43.54-0.61,87.09-0.31,130.64-0.24c47.07,0.07,73.94,23.72,77.76,70.61c1.87,22.91,0.42,46.08,0.82,69.13
			c0.1,5.88-1.6,8.69-7.72,7.81c-0.5-0.07-1.02-0.03-1.54,0c-40.04,2.03-39.87,2.03-40.13-38.39c-0.09-14.28,1.48-28.64-1.69-42.87
			c-2.62-11.78-9.33-17.27-21.59-17.21c-46.62,0.23-93.24,0.3-139.86-0.07c-10.01-0.08-10,3.53-6.31,10.7
			c5.31,10.31,13.85,14.19,25.1,14.12c29.71-0.19,59.43-0.15,89.14-0.03c21.93,0.09,30.62,8.81,30.67,30.73
			c0.09,36.89,0.07,73.77,0,110.66c-0.04,19.51-4.69,25.86-24.18,31.71c-104.12,31.29-208.3,62.36-312.41,93.67
			c-57.64,17.34-92.08,56.44-105.66,114.45c-33.57,143.45-56.19,289.01-83.26,433.71c-11.09,59.3-21.33,118.77-32.69,178.02
			c-2.2,11.49-1.92,15.85,11.91,15.64c56.34-0.82,112.71-0.59,169.06-0.11c10.05,0.09,13.51-2.44,15.51-12.86
			c13.19-68.77,27.45-137.33,41.16-206c1.09-5.45,0.84-11.21,0.85-16.83c0.05-72.24,0.44-144.48-0.34-216.71
			c-0.14-13.33,3.78-15.73,16.06-15.41c33.47,0.87,33.49,0.28,33.49,34.48c0,64.55,0.09,129.11-0.1,193.66
			c-0.03,8.85,1.39,16.98,4.73,25.25c29.23,72.38,57.97,144.96,87.41,217.25c4.01,9.85,2.5,13.7-7.47,17.6
			c-33.79,13.21-33.65,13.62-47.07-20.1c-15.67-39.35-31.28-78.73-47-118.07c-1.83-4.59-4.13-8.99-7.53-16.31
			c-10.16,50.96-19.9,98.71-29.11,146.57c-2.71,14.09-5.34,27.78-18.41,36.43c-88.12,0-176.25,0-264.37,0
			c-14.02-10.07-16.36-22.62-13.19-39.73c32.64-176.46,64.02-353.15,96.67-529.61c8.27-44.67,18.1-89.21,30.28-132.96
			c18.78-67.47,63.1-112.84,129.83-133.68c95.98-29.97,192.54-58.11,289.03-86.38c13.14-3.85,19.58-8.59,18.05-23.68
			c-1.74-17.24-0.81-34.81-0.22-52.21c0.27-8.02-2.04-10.47-10.17-10.24c-20.48,0.58-40.98,0.29-61.47,0.16
			c-44.51-0.28-75.91-31.96-76.08-76.79c-0.11-28.18-0.35-56.36,0.18-84.53c0.16-8.59-2.1-11.19-10.91-11.03
			c-26.52,0.48-46.47-11.13-57.57-35.59c-11.21-24.7-4.9-46.58,11.87-66.81c24.97-30.1,47.03-61.99,54.45-101.48
			c1.97-10.5,1.59-21.44,3.39-31.99c14.09-82.81,85.06-149.01,174.28-155.86c58.52-4.49,117.89-5.96,176.43,1.49
			c102.25,13.02,182.99,100.81,188.23,203.93c2.1,41.39,2.3,83.08-0.05,124.44c-3.38,59.62-37.85,102.34-82.98,137.33
			c-10.67,8.27-15.33,16.35-15.04,30.1c0.95,44.55,0.58,89.14,0.17,133.7c-0.09,9.4,1.73,13.81,12.08,16.84
			c95.03,27.87,189.7,56.92,284.66,85.03c79.5,23.54,126.94,76.08,145.5,156.32c32.05,138.54,54.19,278.97,80.3,418.64
			c14.1,75.38,26.81,151.03,41.37,226.31c3.25,16.81-0.35,28.52-13.47,38.24C1613.8,1791.07,1525.68,1791.07,1437.56,1791.07z
			 M837.62,1225.44c-7.35,0-12.31,0-17.26,0c-38.96-0.02-38.96-0.02-37.59-39.29c0.02-0.51,0.07-1.04-0.01-1.54
			c-1.13-6.91,2.03-8.7,8.6-8.49c13.82,0.44,27.73-0.76,41.47,0.37c15.75,1.29,26-0.88,29.17-19.89
			c2.82-16.94,14.75-30.09,28.79-40.32c9.08-6.62,18.51-12.78,27.8-19.11c14.69-10.01,17.03-32.42,4.74-45.56
			c-25.35-27.1-61.08-30.53-91-7.88c-41.7,31.56-74.51,71.54-104.1,114.11c-12.72,18.31-18.94,39.89-19.02,62.28
			c-0.38,95.79-0.55,191.59,0.04,287.38c0.16,25.68,13.92,44.45,36.81,55.95c22.19,11.14,42.44,6.53,61.4-8.34
			c31-24.33,62.26-48.31,93.3-72.59c19.77-15.47,29.77-35.73,29.63-61.08c-0.21-39.96-0.8-79.93,0.29-119.86
			c0.48-17.69,0.05-31.76-22.25-33.94c-11.4-1.11-19.39-19.14-28.86-14c-9.29,5.04-13.29,19.81-19.61,30.31
			c-1.06,1.75-1.94,3.64-3.2,5.23c-20.9,26.51-26.94,56.31-25.67,89.99c0.86,22.89,4.81,40.4,23.09,55.8
			c20.93,17.64,19.78,19.01,0.01,38.78c-14.98,14.98-15.12,15.12-29.32,0.49c-4.17-4.3-7.33-9.59-12-15.82
			c-6.56,9.82-10.68,16.23-15.04,22.47c-6.41,9.18-11.78,24.01-19.85,25.72c-7.84,1.65-18.17-10.93-28.06-15.97
			c-10.95-5.57-11.73-10.96-4.16-20.6c24.94-31.74,46.09-65.08,37.05-108.56c-0.1-0.49-0.09-1.04,0-1.53
			c1.8-9.54-2.13-11.78-11.58-11.79c-40.23-0.04-40.02-0.38-37.83-40.55c0.37-6.78,2.15-8.72,8.77-8.51
			c14.33,0.45,28.68,0.2,43.03,0.1c3.88-0.03,7.85,0.95,10.63-3.79C809.16,1272.63,822.86,1250.07,837.62,1225.44z M1197.22,1461.41
			c-9.88,9.11-18.4,23.29-28,24.07c-9.91,0.81-17.18-15.43-26.58-23.09c-7.02-5.72-8.2-10.02-0.48-16.56
			c9.34-7.93,17.26-17.51,26.3-25.81c5.66-5.2,7.31-10.85,8.13-18.54c5.02-47.03-3.38-90.1-34.13-127.44
			c-3.22-3.9-5.92-8.44-7.91-13.1c-4.08-9.53-8.38-12.27-17.09-3.91c-7.78,7.48-17.86,12.58-28.48,14.11
			c-10.5,1.52-11.3,7.07-11.24,15.67c0.31,44.57,0.37,89.14,0.06,133.71c-0.18,25.93,9.73,46.49,30.18,62.31
			c30.36,23.49,60.77,46.92,90.77,70.86c19.73,15.75,40.68,21.5,63.96,9.49c23.87-12.32,36.42-32.34,36.46-59.42
			c0.11-92.73,0.08-185.46,0.01-278.19c-0.02-23.52-5.13-46.16-18.19-65.63c-29.79-44.4-63.82-85.32-106.98-117.56
			c-27.01-20.17-58.64-17.96-84.13,4.44c-18.87,16.58-17.74,38.85,2.99,52.36c21.1,13.76,42.04,27.36,52.42,52.1
			c3.43,8.19,0.96,20.53,9.58,24.15c7.85,3.3,18.15,0.78,27.36,0.82c2.05,0.01,4.1,0,6.15,0c37.98,0,37.7,0,37.29,38.28
			c-0.09,8.46-1.94,11.59-10.88,11.11c-13.96-0.76-27.99-0.2-44.06-0.2c8.14,13.72,16.52,24.41,21.28,36.53
			c12.07,30.72,32.63,44.33,65.65,37.34c3.43-0.73,7.16,0.08,10.74-0.13c4.52-0.28,6.41,1.49,6.28,6.14
			c-0.37,13.76,3.7,29.79-2.11,40.54c-4.17,7.73-21.73,1.61-33.28,2.52c-2.04,0.16-4.12,0.24-6.14-0.01
			c-6.02-0.75-7.55,1.82-7.86,7.74c-1.83,34.54,0.04,66.65,24.12,96.09c24.59,30.06,22.18,31.74-11.93,52.64
			c-6.35,3.89-9.18,3.31-13.05-2.88C1215.8,1488.21,1206.38,1474.95,1197.22,1461.41z"/>
		<path class="st3" d="M369.55,953.93c2.49-0.25,3.09-0.14,3.49-0.38c10.06-5.89,22.26-18.53,29.65-16.16
			c11.32,3.62,14.91,20.63,22.96,31.12c3.97,5.17,3.5,8.17-2.37,11.81c-23.01,14.25-45.73,28.98-68.48,43.65
			c-10.23,6.6-20.33,6.14-30.16-0.39c-21.28-14.13-42.25-28.72-63.69-42.6c-6.56-4.24-8.06-7.51-2.93-14.04
			c7.84-9.99,13.11-26.1,22.81-29.2c7.52-2.41,20.14,11.08,30.5,17.49c1.68,1.04,3.39,2.03,6.27,3.75
			c5.48-25.67,10.73-50.37,21.24-73.6c33.06-73.14,92.02-116.9,164.44-145.11c46.02-17.93,94.19-26.65,143.27-31.1
			c10.61-0.96,14.99,1.61,13.37,12.74c-1.74,11.94,5.58,28.17-3.08,34.96c-8.08,6.33-23.62,2.82-35.8,4.32
			c-65.93,8.13-128.02,26.54-180.26,69.8C402.39,862.77,378.8,903.38,369.55,953.93z"/>
		<path class="st3" d="M585.89,632.03c-1.3-2.92-1.87-4.31-2.53-5.65c-4.63-9.41-18.92-19.84-14.46-26.42
			c7.45-11,22.34-16.99,34.14-25.01c4.99-3.39,6.1,1.52,7.85,4.13c14.81,22.03,29.98,43.85,44.08,66.34
			c11.69,18.65,0.94,38.77-21.02,38.82c-134.47,0.33-248.2-61.36-284.57-216.62c-7.14-30.5-10.32-61.47-9.65-92.85
			c0.17-8.09,0.21-13.73,11.36-11.21c11.89,2.68,27.73-2.95,35.57,4.85c7.8,7.77,1.83,23.24,2.95,35.3
			c5.84,62.94,21.87,121.93,68.14,168.16C492.52,606.6,535.34,625.59,585.89,632.03z"/>
		<path class="st3" d="M955.66,856.56c23.86,0,23.86,0,23.86,23.79c0,25.39,0,25.39-25.33,25.39c-23.85,0-23.85,0-23.85-23.79
			C930.33,856.56,930.33,856.56,955.66,856.56z"/>
	</g>
</g>
</svg>
