<?xml version="1.0" encoding="utf-8"?>
<!-- Generator: Adobe Illustrator 25.0.1, SVG Export Plug-In . SVG Version: 6.00 Build 0)  -->
<svg version="1.1" xmlns="http://www.w3.org/2000/svg" xmlns:xlink="http://www.w3.org/1999/xlink" x="0px" y="0px"
	 viewBox="0 0 2000 2000" style="enable-background:new 0 0 2000 2000;" xml:space="preserve">
<style type="text/css">
	.st0{display:none;}
	.st1{display:inline;}
	.st2{fill:#E58A7B;}
	.st3{fill:#333333;}
	.st4{fill:#B3B3B3;}
</style>
<g id="Capa_1" class="st0">
	<g class="st1">
		<path class="st2" d="M1884,1116.62c0,8.97,0,17.94,0,26.91c-0.44,0.06-0.88,0.07-1.32,0.03c-0.42-8.98-0.43-17.97,0-26.95
			C1883.12,1116.59,1883.56,1116.6,1884,1116.62z"/>
		<path class="st2" d="M117.25,1084.64c0.93-3.55-0.58-7.5,1.77-10.82c0.59,8-0.08,15.92-1.32,23.82c-0.56-0.01-1.13-0.01-1.69-0.02
			c0-2.11,0-4.22,0-6.33C118.07,1089.39,117.38,1086.96,117.25,1084.64z"/>
		<path class="st2" d="M988.13,246.14c7.91,0,15.83,0,23.74,0c0.02,0.45,0.05,0.9,0.09,1.35c-7.97,0.01-15.95,0.02-23.92,0.02
			C988.1,247.06,988.13,246.6,988.13,246.14z"/>
		<path class="st2" d="M116.01,1141.94c0-7.39,0-14.77,0-22.16c0.54,0.01,1.08,0.01,1.62,0.02c-0.01,7.38-0.02,14.76-0.03,22.13
			C117.07,1141.94,116.54,1141.94,116.01,1141.94z"/>
		<path class="st2" d="M1882.68,1143.55c0.44,0.04,0.88,0.03,1.32-0.03c0,4.22,0,8.44,0,12.66l-0.66,0.1l-0.66-0.06
			C1882.2,1152,1882.32,1147.78,1882.68,1143.55z"/>
		<path class="st2" d="M116.01,1141.94c0.53,0,1.06,0,1.59-0.01c-0.01,3.7-0.01,7.39-0.02,11.09c-0.53,0.01-1.05,0.01-1.58,0
			C116.01,1149.33,116.01,1145.63,116.01,1141.94z"/>
		<path class="st2" d="M117.63,1119.8c-0.54-0.01-1.08-0.01-1.62-0.02c0-3.69,0-7.39,0-11.08c0.54,0.01,1.09,0.02,1.63,0.03
			C117.64,1112.43,117.63,1116.11,117.63,1119.8z"/>
		<path class="st2" d="M1884,1116.62c-0.44-0.02-0.88-0.03-1.32-0.02c-0.33-3.7-0.52-7.41,0.01-11.11c0.44-0.04,0.88-0.02,1.31,0.05
			C1884,1109.23,1884,1112.93,1884,1116.62z"/>
		<path class="st2" d="M383.5,1752.86c0.01-0.55,0.01-1.09,0.02-1.64c3.68-0.01,7.35-0.03,11.03-0.04c0.01,0.56,0.02,1.12,0.03,1.68
			C390.89,1752.86,387.2,1752.86,383.5,1752.86z"/>
		<path class="st2" d="M117.3,1175.53c-0.46-0.01-0.89-0.13-1.29-0.35c0-3.17,0-6.33,0-9.5c0.59-0.05,1.19-0.11,1.78-0.16
			c0,0-0.04-0.01-0.04-0.01C117.6,1168.85,117.45,1172.19,117.3,1175.53z"/>
		<path class="st2" d="M988.13,246.14c-0.01,0.46-0.04,0.92-0.09,1.38c-3.17-0.03-6.35-0.06-9.52-0.09
			c0.05-0.43,0.09-0.86,0.11-1.29C981.8,246.14,984.97,246.14,988.13,246.14z"/>
		<path class="st2" d="M1011.97,247.5c-0.05-0.45-0.08-0.9-0.09-1.35c3.17,0,6.33,0,9.5,0c-0.03,0.44,0,0.88,0.07,1.31
			C1018.29,247.47,1015.13,247.48,1011.97,247.5z"/>
		<path class="st2" d="M1029.29,246.14c3.17,0,6.33,0,9.5,0c-0.01,0.45,0.01,0.9,0.04,1.35c-3.16,0.52-6.32,0.26-9.47-0.07
			C1029.31,247,1029.28,246.57,1029.29,246.14z"/>
		<path class="st2" d="M1616.51,1751.31c0.03,0.52,0.02,1.03,0,1.55c-3.17,0-6.33,0-9.5,0c-0.01-0.53-0.01-1.05,0.01-1.58
			C1610.18,1751.29,1613.34,1751.3,1616.51,1751.31z"/>
		<path class="st2" d="M978.64,246.14c-0.02,0.43-0.05,0.86-0.11,1.29c-2.1,0.02-4.2,0.03-6.3,0.05c0.06-0.45,0.09-0.89,0.08-1.34
			C974.42,246.14,976.53,246.14,978.64,246.14z"/>
		<path class="st2" d="M972.31,246.14c0.01,0.45-0.01,0.9-0.08,1.34c-2.1,0-4.2-0.01-6.29-0.01c0.03-0.44,0.04-0.89,0.04-1.33
			C968.08,246.14,970.2,246.14,972.31,246.14z"/>
		<path class="st2" d="M965.97,246.14c0,0.45-0.01,0.89-0.04,1.33c-2.11,0-4.22,0-6.33,0c0.02-0.44,0.03-0.89,0.04-1.33
			C961.75,246.14,963.86,246.14,965.97,246.14z"/>
		<path class="st2" d="M116.01,1153.02c0.53,0.02,1.05,0.02,1.58,0c0.29,2.1,0.77,4.2,0.06,6.3c-0.55,0.01-1.09,0.02-1.64,0.02
			C116.01,1157.24,116.01,1155.13,116.01,1153.02z"/>
		<path class="st2" d="M959.64,246.14c-0.01,0.44-0.02,0.89-0.04,1.33c-2.11,0.02-4.21,0.03-6.32,0.05
			c0.03-0.46,0.04-0.92,0.03-1.38C955.42,246.14,957.53,246.14,959.64,246.14z"/>
		<path class="st2" d="M116.01,1159.35c0.55-0.01,1.09-0.02,1.64-0.02c0.35,2.06,0.81,4.11,0.14,6.2c-0.59,0.05-1.19,0.11-1.78,0.16
			C116.01,1163.57,116.01,1161.46,116.01,1159.35z"/>
		<path class="st2" d="M117.64,1108.74c-0.54-0.01-1.09-0.02-1.63-0.03c0-2.11,0-4.22,0-6.33c0.56,0.01,1.12,0.02,1.68,0.04
			C118.3,1104.52,117.86,1106.63,117.64,1108.74z"/>
		<path class="st2" d="M1038.82,247.5c-0.04-0.45-0.05-0.9-0.04-1.35c2.11,0,4.22,0,6.33,0c0.02,0.44,0.04,0.89,0.05,1.33
			C1043.05,247.49,1040.94,247.49,1038.82,247.5z"/>
		<path class="st2" d="M117.25,1084.64c0.13,2.32,0.82,4.74-1.24,6.65c0-2.11,0-4.22,0-6.33
			C116.41,1084.81,116.82,1084.71,117.25,1084.64z"/>
		<path class="st2" d="M117.69,1102.41c-0.56-0.01-1.12-0.02-1.68-0.04c0-1.58,0-3.17,0-4.75c0.56,0.01,1.13,0.01,1.69,0.02
			C118.26,1099.24,118.03,1100.82,117.69,1102.41z"/>
		<path class="st2" d="M1021.45,247.46c-0.08-0.43-0.1-0.87-0.07-1.31c1.58,0,3.17,0,4.75,0c-0.02,0.45,0,0.9,0.06,1.35
			C1024.6,247.48,1023.02,247.47,1021.45,247.46z"/>
		<path class="st2" d="M1026.18,247.49c-0.06-0.45-0.08-0.9-0.06-1.35c1.06,0,2.11,0,3.17,0c0,0.43,0.02,0.86,0.07,1.29
			C1028.3,247.45,1027.24,247.47,1026.18,247.49z"/>
		<path class="st2" d="M1026.18,247.49c1.06-0.02,2.11-0.04,3.17-0.06c3.16,0.33,6.31,0.59,9.47,0.07c2.11-0.01,4.23-0.01,6.34-0.02
			c35.54,2.04,70.93,5.58,106.04,11.54c71.91,12.21,141.54,32.34,208.33,61.73c168.08,73.96,300.31,189.21,395.93,345.98
			c50.6,82.95,85.55,172.34,106.52,267.22c10.54,47.7,17.01,95.94,19.98,144.66c0.54,8.94,0.5,17.91,0.73,26.87
			c-0.53,3.7-0.34,7.4-0.01,11.11c-0.43,8.98-0.41,17.97,0,26.95c-0.37,4.23-0.48,8.45,0,12.68c-0.38,18.71-1.41,37.37-3.1,56.01
			c-4.22,46.76-12.06,92.88-23.47,138.42c-23.36,93.2-60.82,180.3-112.68,261.19c-28.09,43.82-60.09,84.58-95.42,122.79
			c-8.64,9.35-19.31,14.31-31.5,16.66c-3.16-0.01-6.33-0.02-9.49-0.03c-3.05-0.79-6.16-1.4-9.15-2.39
			c-14.96-4.94-25.28-14.76-30.67-29.61c-11.71-32.22-25.26-63.62-42.16-93.47c-85.22-150.48-211.34-247.56-379.38-289.37
			c-60.02-14.93-121.06-19.65-182.81-15.93c-102.4,6.17-197.65,35.16-284.54,89.95c-105.07,66.25-180.75,157.68-229.88,271.41
			c-4.8,11.11-9.31,22.37-13.28,33.79c-6.62,19.03-19.06,31.14-39.12,34.92c-0.51,0.1-0.98,0.39-1.46,0.59
			c-3.68,0.01-7.35,0.03-11.03,0.04c-13.75-2.53-24.47-9.69-33.94-20.01c-96.17-104.79-162.66-225.89-200.32-362.92
			c-13.28-48.33-22.42-97.44-27.15-147.35c-1.14-12.06-2.09-24.14-3.13-36.21c0.29-6.45,0.55-12.9-1.23-19.22
			c0,0,0.04,0.01,0.04,0.01c0.67-2.08,0.2-4.14-0.14-6.2c0.71-2.11,0.23-4.21-0.06-6.3c0.01-3.7,0.01-7.39,0.02-11.09
			c0.01-7.38,0.02-14.76,0.03-22.13c0-3.69,0.01-7.38,0.01-11.06c0.21-2.11,0.66-4.21,0.04-6.33c0.35-1.59,0.58-3.17,0.01-4.76
			c1.24-7.9,1.91-15.82,1.32-23.82c6.18-92.32,25.06-181.87,58.41-268.28c46.43-120.32,115.68-225.56,208.72-314.95
			c104-99.91,225.87-168.94,364.2-209.07c44.56-12.93,89.95-22.09,136.04-27.81c22.25-2.76,44.57-4.46,66.9-6.2
			c2.11-0.02,4.21-0.03,6.32-0.05c2.11,0,4.22,0,6.33,0c2.1,0,4.2,0.01,6.29,0.01c2.1-0.02,4.2-0.03,6.3-0.05
			c3.17,0.03,6.35,0.06,9.52,0.09c7.97-0.01,15.95-0.01,23.92-0.02c3.16-0.01,6.32-0.03,9.48-0.04
			C1023.02,247.47,1024.6,247.48,1026.18,247.49z M1626.05,1614.09c1.55-1.9,2.57-3.09,3.53-4.34
			c45.3-58.78,82.05-122.47,109.63-191.39c36.53-91.29,55.17-186.13,55.95-284.43c0.38-47.3-3.8-94.23-12.09-140.83
			c-10.85-60.95-28.69-119.73-53.56-176.4c-41.93-95.56-100.77-179.42-175.2-252.41c-72.66-71.25-155.54-127.41-249.23-167.33
			c-87.66-37.35-179.2-57.9-274.4-61.71c-62.17-2.49-123.77,2.63-184.78,15.05c-80.61,16.41-156.77,44.72-228.33,85.22
			c-115.46,65.36-209.82,153.57-282.73,264.3C256.77,818.41,214,948.94,206.59,1090.77c-3.64,69.6,2.19,138.58,17.49,206.61
			c25.82,114.85,75.17,218.71,146.87,312.01c1.17,1.52,1.98,3.62,4.13,4.02c90.67-173.38,229.13-290.78,413.17-355.31
			c-0.95-2.36-3.44-3-5.35-4.29c-111.4-75.59-178.51-178.43-192.45-313.7c-4-38.84-0.95-77.43,7.59-115.52
			c16.9-75.37,52.44-140.95,105.66-196.64c69.19-72.41,153.02-116.83,253.09-128.98c52.85-6.42,104.84-1.71,155.54,14.1
			c109.19,34.06,192.11,101.56,247.93,200.99c54.62,97.29,67.06,200.55,34.27,307.64c-30.09,98.27-90.21,174.64-175.6,231.42
			c-2.32,1.54-5.31,2.38-6.44,5C1396.64,1322.66,1535.12,1440.05,1626.05,1614.09z M1317.09,905.33c-0.42-21.79-2.21-45.7-7.6-69.18
			c-24.11-104.91-84.69-179.93-184.58-221.16c-66.61-27.49-135.95-31.38-205.58-13.93c-101.35,25.4-173.07,86.8-212.52,183.87
			c-24.97,61.44-29.66,125.57-16.16,190.29c22.31,106.96,83.52,183.46,184.92,225.23c73.82,30.41,149.96,32.04,226.08,8.57
			c72.62-22.39,129.3-66.36,169.13-131.29C1302.75,1025.62,1316.65,968.38,1317.09,905.33z"/>
		<path class="st2" d="M117.75,1165.51c1.78,6.32,1.53,12.77,1.23,19.22c-2.14-2.78-0.99-6.16-1.68-9.2
			C117.45,1172.19,117.6,1168.85,117.75,1165.51z"/>
	</g>
</g>
<g id="Capa_2">
	<g id="Layer_x5F_1">
		<path class="st3" d="M1140.47,367.52h-0.1h-0.1c-30.27,6.95-56.11,20.9-76.03,39.33c-17.66,16.32-30.58,35.98-37.73,57.24
			c-7.05,20.9-8.55,43.45-3.45,65.79c4.99,21.72,16.32,43.5,35,63.73c14.72,15.96,32.79,29.6,52.76,40.36
			c20.74,11.22,43.29,19.3,66.04,23.68l12.97,2.47l7.26,11.17c30.37,46.69,63.16,117.88,78.09,188.51
			c12.05,56.93,12.66,114.38-8.08,160.97v0.1c-17.97,40.41-56.93,79.43-100.02,105.53l-0.05-0.1
			c-22.91,13.85-47.36,24.3-71.14,29.75c-6.23,0.72-48.08,4.99-80.05-1.85c-18.27-3.91-30.94-14.31-38.2-26.92
			c-4.63-8.08-7.1-17.09-7.36-25.89c-0.26-8.7,1.54-17.19,5.51-24.4c5.04-9.32,13.69-16.52,25.79-19.25
			c20.74-4.63,43.24-10.3,63.93-19.61c81.59-36.75,94.05-115.31,56.01-194.84c-16.37-34.23-35.67-26.3-45.76,6.23l-46.23,153.14
			c-4.22,15.13-4.68,26.15-0.72,32.28c-10.35,2.99-20.69,5.46-30.68,7.72c-16.94,3.81-29.03,13.9-36.08,26.97
			c-5.25,9.63-7.67,20.9-7.31,32.33c0.36,11.32,3.45,22.86,9.37,33.1c9.32,16.21,25.43,29.44,48.49,34.44
			c24.76,5.3,54.67,4.43,71.96,3.24l92.61,403.78v0.1v0.1c5.87,25.58,0.72,51.22-12.25,71.91c-13.02,20.8-33.92,36.55-59.56,42.47
			h-0.1h-0.1c-25.69,5.82-51.37,0.77-72.12-12.25c-20.64-12.97-36.39-33.82-42.31-59.61l-99.81-435.02
			c-38.86,69.29-80.92,274.78-102.13,378.55c-5.87,28.67-10.24,50.19-12.41,58.68c-6.54,25.74-22.8,46.17-43.81,58.63
			s-46.79,16.88-72.32,10.55h-0.26c-25.58-6.54-46.12-22.86-58.68-44.01c-12.51-21.05-16.99-46.84-10.45-72.38
			c15.96-62.65,31.35-131.78,47.77-205.44c43.6-195.61,94.05-422.15,158.75-566.96c13.54-30.27,26-56.98,40.46-81.8
			c11.12-19.05,23.58-37.27,38.71-55.59c-18.74-26.97-31.4-56.01-38.5-86.07c-12.56-53.38-7.31-109.44,12.51-161.84
			c19.51-51.68,53.17-99.76,97.7-138.11c42-36.14,93.84-63.78,152.83-77.73v-0.05l0.1-0.05h0.1c22.86-5.4,45.81-0.93,64.5,10.6
			s32.94,30.11,38.4,53.02v0.1l0.05,0.1v0.1c5.41,22.91,0.93,45.87-10.6,64.55c-11.58,18.69-30.16,33-53.07,38.4L1140.47,367.52
			L1140.47,367.52z"/>
		<path class="st3" d="M1330.67,381.62L1330.67,381.62c35.52,16.83,60.84,46.43,73.04,80.66c12.2,34.23,11.38,73.15-5.46,108.61
			c-10.35,21.83-25.64,39.95-44.01,53.48c-18.69,13.8-40.72,22.75-64.14,26.1c-21.88,3.09-45.81,0.1-67.69-7.62
			c-21.93-7.72-42.36-20.38-57.24-36.55c-19.3-21-31.76-47.31-35.93-75.05c-4.07-26.97-0.46-55.44,12.15-81.95l0,0
			c16.83-35.52,46.43-60.84,80.66-73.1C1256.29,363.97,1295.2,364.79,1330.67,381.62L1330.67,381.62z"/>
	</g>
</g>
<g id="Capa_6" class="st0">
	<g id="Layer_x5F_1_1_" class="st1">
		<path class="st4" d="M1140.68,367.13h-0.1h-0.1c-30.27,6.95-56.11,20.9-76.03,39.33c-17.66,16.32-30.58,35.98-37.73,57.24
			c-7.05,20.9-8.55,43.45-3.45,65.79c4.99,21.72,16.32,43.5,35,63.73c14.72,15.96,32.79,29.6,52.76,40.36
			c20.74,11.22,43.29,19.3,66.04,23.68l12.97,2.47l7.26,11.17c30.37,46.69,63.16,117.88,78.09,188.51
			c12.05,56.93,12.66,114.38-8.08,160.97v0.1c-17.97,40.41-56.93,79.43-100.02,105.53l-0.05-0.1
			c-22.91,13.85-47.36,24.3-71.14,29.75c-6.23,0.72-48.08,4.99-80.05-1.85c-18.27-3.91-30.94-14.31-38.2-26.92
			c-4.63-8.08-7.1-17.09-7.36-25.89c-0.26-8.7,1.54-17.19,5.51-24.4c5.04-9.32,13.69-16.52,25.79-19.25
			c20.74-4.63,43.24-10.3,63.93-19.61c81.59-36.75,94.05-115.31,56.01-194.84c-16.37-34.23-35.67-26.3-45.76,6.23l-46.23,153.14
			c-4.22,15.13-4.68,26.15-0.72,32.28c-10.35,2.99-20.69,5.46-30.68,7.72c-16.94,3.81-29.03,13.9-36.08,26.97
			c-5.25,9.63-7.67,20.9-7.31,32.33c0.36,11.32,3.45,22.86,9.37,33.1c9.32,16.21,25.43,29.44,48.49,34.44
			c24.76,5.3,54.67,4.43,71.96,3.24l92.61,403.78v0.1v0.1c5.87,25.58,0.72,51.22-12.25,71.91c-13.02,20.8-33.92,36.55-59.56,42.47
			h-0.1h-0.1c-25.69,5.82-51.37,0.77-72.12-12.25c-20.64-12.97-36.39-33.82-42.31-59.61l-99.81-435.02
			c-38.86,69.29-80.92,274.78-102.13,378.55c-5.87,28.67-10.24,50.19-12.41,58.68c-6.54,25.74-22.8,46.17-43.81,58.63
			c-21,12.46-46.79,16.88-72.32,10.55h-0.26c-25.58-6.54-46.12-22.86-58.68-44.01c-12.51-21.05-16.99-46.84-10.45-72.38
			c15.96-62.65,31.35-131.78,47.77-205.44c43.6-195.61,94.05-422.15,158.75-566.96c13.54-30.27,26-56.98,40.46-81.8
			c11.12-19.05,23.58-37.27,38.71-55.59c-18.74-26.97-31.4-56.01-38.5-86.07c-12.56-53.38-7.31-109.44,12.51-161.84
			c19.51-51.68,53.17-99.76,97.7-138.11c42-36.14,93.84-63.78,152.83-77.73v-0.05l0.1-0.05h0.1c22.86-5.4,45.81-0.93,64.5,10.6
			s32.94,30.11,38.4,53.02v0.1l0.05,0.1v0.1c5.41,22.91,0.93,45.87-10.6,64.55c-11.58,18.69-30.17,33-53.07,38.4L1140.68,367.13
			L1140.68,367.13z"/>
		<path class="st4" d="M1330.89,381.23L1330.89,381.23c35.52,16.83,60.84,46.43,73.04,80.66s11.38,73.15-5.46,108.61
			c-10.35,21.83-25.64,39.95-44.01,53.48c-18.69,13.8-40.72,22.75-64.14,26.1c-21.88,3.09-45.81,0.1-67.69-7.62
			c-21.93-7.72-42.36-20.38-57.24-36.55c-19.3-21-31.76-47.31-35.93-75.05c-4.07-26.97-0.46-55.44,12.15-81.95l0,0
			c16.83-35.52,46.43-60.84,80.66-73.1C1256.5,363.58,1295.42,364.4,1330.89,381.23L1330.89,381.23z"/>
	</g>
</g>
<g id="Capa_3" class="st0">
	<g class="st1">
		<path class="st3" d="M176.85,995.89c29.03-33.1,65.15-58.17,98.62-86.14C486.1,733.66,697.43,558.43,907.91,382.19
			c44.43-37.21,91.54-48.33,145.49-25.57c12.96,5.47,23.64,14.51,34.31,23.43c74.73,62.46,149.42,124.97,224.16,187.43
			c3.91,3.27,8.11,6.19,14.27,10.85c0-56.14,0-109.47,0-162.79c0-10.71-0.29-21.43,0.09-32.12c0.84-23.78,11.81-35.71,35.66-35.92
			c63.17-0.55,126.35-0.62,189.52,0.02c25.04,0.25,35.8,13.54,35.82,41.08c0.07,130.63,0.22,261.26-0.28,391.89
			c-0.05,12.01,3.69,19.4,12.77,26.85c66.98,55.03,133.52,110.61,200.22,165.97c27.69,22.99,29,38.06,5.65,65.82
			c-16.19,19.25-32.2,38.65-48.46,57.83c-18.6,21.94-36.19,23.68-57.93,5.55C1472.3,913.39,1245.43,724.2,1018.57,535
			c-19.25-16.05-19.13-16.06-38.02-0.31c-226.45,188.85-452.92,377.69-679.38,566.52c-23.58,19.66-40.7,18.3-60.29-5.19
			c-21.48-25.76-42.69-51.75-64.02-77.64C176.85,1010.88,176.85,1003.38,176.85,995.89z"/>
		<path class="st3" d="M1587.27,1347.82c0,77.1,0.05,154.2-0.02,231.3c-0.04,47.93-26.59,74.74-74.38,74.78
			c-122.61,0.11-245.22-0.15-367.83,0.33c-12.09,0.05-15.1-2.98-15.05-15.04c0.48-120.47,0.1-240.93,0.57-361.4
			c0.05-12.39-2.78-16.09-15.68-15.98c-77.09,0.65-154.2,0.71-231.29-0.04c-13.55-0.13-15.36,4.54-15.32,16.34
			c0.39,119.4,0.05,238.79,0.51,358.19c0.05,13.12-1.73,18.17-16.97,18.07c-121.53-0.77-243.07-0.39-364.61-0.45
			c-49.15-0.03-75.66-26.36-75.67-75.14c-0.05-156.34,0.11-312.68-0.27-469.02c-0.03-11.88,3.59-19.39,12.81-26.97
			C610.51,929.53,796.82,776.09,982.6,622.02c13.45-11.16,20.8-10.51,33.81,0.27c185.84,154,372.12,307.47,558.59,460.71
			c9.31,7.65,12.58,15.37,12.51,27.11C1587.04,1189.34,1587.27,1268.58,1587.27,1347.82z"/>
	</g>
</g>
<g id="Capa_4" class="st0">
	<g class="st1">
		<path class="st3" d="M567.46,280.81c310.09,0,620.18,0,930.27,0c0.57,0.67,1.05,1.78,1.74,1.94
			c64.59,14.92,100.07,58.15,100.08,123.4c0.11,433.73,0.01,867.46,0.34,1301.2c0.01,11.01-3.26,12.67-13.24,12.66
			c-334.43-0.26-668.87-0.24-1003.3-0.17c-17.92,0-35.47-2.16-52.64-7.19c-78.05-22.9-129.64-91.84-129.69-175.09
			c-0.21-358.32-0.1-716.64-0.06-1074.96c0-6.55,0.24-13.12,0.68-19.66c5.24-78.08,73.67-150.18,151.41-159.62
			C558.17,284.21,563.2,284.74,567.46,280.81z M1000.28,940.42c0-8.82,0-13.96,0-19.11c0-169.07-0.07-338.15,0.19-507.22
			c0.02-9.6-1.07-13.56-12.45-13.46c-71.65,0.64-143.31,0.5-214.97,0.11c-9.38-0.05-12.62,1.68-12.61,11.97
			c0.3,311.92,0.28,623.84,0.07,935.76c-0.01,8.65,1.49,11.82,11.19,11.81c232.3-0.31,464.6-0.29,696.9-0.05
			c8.98,0.01,11.8-1.97,11.79-11.44c-0.26-311.92-0.26-623.84,0.01-935.76c0.01-10.07-3.03-12.36-12.6-12.28
			c-51.05,0.45-102.1,0.58-153.14-0.08c-11.4-0.15-14.69,2.27-14.66,14.28c0.45,169.07,0.31,338.15,0.31,507.22
			c0,4.93,0,9.86,0,15.25c-6.44-1.52-8.79-5.88-11.96-9.03c-43.13-42.97-86.37-85.84-129.01-129.3c-7.48-7.62-11.43-7.73-18.43,0.14
			c-11.19,12.57-23.63,24.03-35.55,35.96C1071.08,869.52,1036.8,903.85,1000.28,940.42z M640.54,880.4c0-63.69,0-127.38,0-191.07
			c0-92.26-0.1-184.52,0.17-276.77c0.03-8.58-1.35-12.38-11.17-11.85c-17.28,0.94-34.64,0.28-51.97,0.44
			c-14.21,0.13-26.4,5.61-36.87,14.92c-15.47,13.76-20.4,31.59-20.39,51.72c0.11,295.97,0.07,591.95,0.07,887.92
			c0,1.87,0.17,3.76-0.03,5.62c-0.63,6.07,1.31,9.04,7.83,6.81c31.79-10.86,64.77-8.26,97.41-7.77
			c11.93,0.18,15.33-2.24,15.29-14.93C640.35,1190.42,640.54,1035.41,640.54,880.4z M1022.75,1480.19
			c-143.77,0-287.54-0.01-431.31,0.02c-6.08,0-12.2-0.07-18.24,0.5c-32.15,3.03-56.75,34.56-52.03,66.45
			c4.96,33.51,28.89,52.46,66.63,52.46c269.74,0.03,539.49,0.02,809.23,0.02c24.35,0,48.71-0.3,73.05,0.17
			c8,0.15,10.38-2.3,10.27-10.3c-0.42-31.37-0.77-62.77,0.13-94.12c0.35-12.13-2.45-15.57-15.18-15.52
			C1317.78,1480.37,1170.26,1480.19,1022.75,1480.19z"/>
		<path class="st3" d="M553.07,283.31c0.59-0.77,0.7-1.6,0.34-2.5c4.68,0,9.37,0,14.05,0C563.2,284.74,558.17,284.21,553.07,283.31z
			"/>
	</g>
</g>
<g id="Capa_5" class="st0">
	<g class="st1">
		<path class="st3" d="M899.99,1630.83c-3.2,2.21-6.46,4.33-9.58,6.64c-20.09,14.89-20.08,14.9-35.16-5.81
			c-0.51-0.7-1.11-1.36-1.52-2.11c-26.52-48.44-68.02-63.06-120.79-55.53c-28.33,4.04-57.14,4.73-85.71,7.13
			c-25.18,2.12-48.91-2.24-72.31-12.13c-62.42-26.39-74.95-101.6-59.83-143.76c7.01-19.54,11.52-39.96,17.65-59.83
			c2.64-8.56-1.41-14.25-7.84-17.11c-43.07-19.15-56.92-53.16-50.61-97.62c1.53-10.79-3.05-13.32-12.91-12.53
			c-32.65,2.64-61.15-5.03-81.06-33.65c-17.08-24.55-16.57-57.1,2.72-85.42c29.08-42.68,58.33-85.27,88.11-127.46
			c15.24-21.59,24.18-44.94,24.7-71.34c1.74-89.41,20.45-174.91,62.34-254.18c87.66-165.88,222.74-271.09,407.82-305.43
			c279.03-51.78,550.68,110.34,635.68,380.03c58.78,186.49,30.88,361.91-83,522.14c-69.05,97.16-84.96,203.96-58.96,318.44
			c2.5,10.99,0.56,15.11-10.4,17.34c-13.12,2.67-25.95,6.95-38.73,11.08c-7.62,2.46-12.39,1.43-13.23-7.42
			c-19.71-76.27-20.85-152.69-1.65-229.24c15.32-61.11,45.48-114.71,80.48-166.63c81.32-120.6,110.15-252.47,77.97-395.64
			c-15.3-68.08-43.16-130.75-85.96-186.33c-2.64-3.94-5.08-8.05-7.96-11.8c-150.64-196.06-425.25-252.32-639.07-128.13
			c-165.9,96.36-251.63,242.48-258.32,434.69c-1.65,47.38-14.97,91.41-42.15,130.76c-24.44,35.39-48.87,70.78-73.32,106.16
			c-2.74,3.96-6.23,8.09-3.72,13.01c2.5,4.92,7.8,2.45,11.8,2.47c29.13,0.2,58.27,0.56,87.38-0.14c9.75-0.23,11.29,2.79,10.08,11.61
			c-3.48,25.39-5.86,50.92-9.19,76.33c-3.01,22.9-3.32,22.86,16.9,35.27c34.48,21.16,47.61,53.41,37.5,92.56
			c-4.77,18.47-9.79,36.87-14.69,55.3c-11.14,39.25,12.08,71.21,52.16,71.42c9.95,0.05,19.9-1.01,29.85-1.55
			c40.65-2.22,81.1-7.95,121.94-6.9c23.45,3.25,44.93,11.87,65.17,23.87c21.52,15.24,37.65,35.44,52.41,56.93
			c5.63,8.2,15.86,16.06,16.16,24.36C921.47,1620.52,906.42,1623,899.99,1630.83z"/>
		<path class="st3" d="M1359.24,1131.58c-1.61,31.94-13.69,58.11-42.82,73.96c-30.98,16.86-62.49,16.89-93.04-0.87
			c-7.63-4.44-13.1-5.46-21-1.4c-10.36,5.31-21.23,10.7-32.49,12.92c-13.03,2.57-16.95,10.15-20.21,21.47
			c-16.92,58.72-85.9,82.01-135.36,46.05c-16.01-11.64-26.93-27.09-31.48-46.43c-2.69-11.45-7.31-20.15-20.41-21.15
			c-0.84-0.06-1.7-0.42-2.46-0.81c-23.51-11.93-44.53-16.44-71.3-1.41c-29.53,16.58-71.77,1.68-92.88-24.29
			c-25.84-31.79-30.09-71.18-9.45-102.73c6.58-10.06,7.41-17.61,1.53-27.95c-5.31-9.32-9.74-19.72-11.73-30.18
			c-2.18-11.46-8.71-15.29-18.63-18.17c-40.95-11.88-64.9-43.12-64.96-83.78c-0.06-40.68,23.92-72.25,64.69-83.93
			c10.51-3.01,18.11-7.4,19.43-19.09c0.19-1.69,0.82-3.4,1.57-4.94c11.13-22.78,16.18-42.96,1.09-68.94
			c-16.71-28.77-2.61-71.07,22.31-92.28c27.9-23.74,72.47-30.66,100.99-12.06c12.19,7.95,19.93,6.61,30.72,0.84
			c7.96-4.25,16.65-8.02,25.45-9.62c12.28-2.23,16.43-9.46,19.47-20.51c10.76-39.17,43.39-63.35,83.75-63.31
			c39.76,0.04,71.96,23.86,82.98,62.48c3.34,11.73,7.9,19.34,21.18,22.37c13.34,3.05,25.38,12.15,38.73,14.69
			c14.24,2.7,23.62-11.71,36.6-16.07c36.92-12.4,72.93-4.99,94.03,21.19c25.04,31.06,29.29,75.83,9,107.13
			c-5.23,8.07-5.87,13.96-1.25,22.11c6.86,12.09,11.82,25.18,14.97,38.72c1.41,6.05,4.15,9.13,9.95,10.2
			c1.68,0.31,3.23,1.25,4.89,1.76c39.74,12.13,64.13,39.92,66.62,75.94c2.82,40.72-17.49,78.05-55.73,92.69
			c-19.05,7.29-28.87,17.8-32.63,36.34c-0.09,0.42-0.18,0.87-0.4,1.24c-10.45,18.11-14.15,35.31,0.79,53.91
			C1358.94,1106.6,1359.56,1119.52,1359.24,1131.58z M1216.74,722.68c-5.71,3.11-10.82,2.84-16.77-0.61
			c-30.09-17.43-60.92-33.2-95.92-38.48c-5.65-0.85-7.58-4.6-8.76-9.75c-3.28-14.36-7.1-28.6-10.51-42.93
			c-2.65-11.14-10.22-15.66-20.91-15.64c-10.79,0.02-18.08,4.94-20.69,15.96c-3.4,14.34-7.29,28.56-10.45,42.95
			c-1.19,5.4-3.56,8.66-9.01,9.49c-34.99,5.31-65.76,21.22-95.9,38.55c-5.94,3.42-10.61,3.48-16.62-0.14
			c-12.61-7.6-25.91-14.04-38.65-21.42c-10.91-6.33-19.39-0.86-27.14,5.47c-7.54,6.16-4.79,14.06-0.98,21.3
			c6.26,11.88,11.88,24.23,19.34,35.32c6.18,9.18,6.12,17.26,1.25,26.35c-16.38,30.59-32.21,61.43-37.82,96.23
			c-0.89,5.5-4.29,6.59-8.85,7.65c-13.5,3.15-26.77,7.46-40.39,9.92c-11.31,2.05-18.88,6.55-18.92,18.9
			c-0.03,11.7,8.04,16.64,17.84,19.34c11.7,3.22,23.39,6.87,35.34,8.65c10.64,1.59,15.36,6.58,17.1,16.95
			c4.36,25.93,13.78,50.21,27.98,72.25c10.02,15.55,15.72,30.35,2.42,46.65c-5.31,9.31-10.95,18.45-15.84,27.97
			c-5.28,10.29,0.75,18.46,6.85,25.68c5.35,6.33,12.65,4.66,19.04,1.2c13.58-7.36,26.95-15.1,40.41-22.68
			c11.06-6.91,19.54,0.91,28.1,5.54c21.53,11.65,42.62,24.16,67.32,28.15c2.37,2.46,5.61,2.11,8.55,2.42
			c12.15,1.28,19.13,6.96,20.86,19.94c1.54,11.52,5.49,22.71,8.03,34.12c2.58,11.58,9.82,16.82,21.36,16.68
			c10.94-0.13,17.9-5.16,20.49-16.13c3.28-13.91,7-27.71,10.31-41.61c1.15-4.82,2.07-9.4,8.1-10.32
			c35.85-5.42,67.31-21.86,98.26-39.46c5.18-2.95,9.34-2.65,14.38,0.26c13.5,7.79,27.18,15.3,40.97,22.56
			c10.25,5.39,18.58-0.15,25.99-6.3c7.03-5.83,4.78-13.41,1.26-20.19c-6.79-13.06-13.58-26.16-21.23-38.73
			c-4.36-7.16-4.58-13.06-0.29-20.25c17.63-29.52,32.25-60.37,37.99-94.64c1.05-6.27,4.93-7.32,9.6-8.48
			c13.86-3.45,27.6-7.58,41.62-10.19c13.15-2.45,16.39-11.49,17.08-22.46c0.69-11.01-6.58-16.48-15.95-19.32
			c-8.7-2.63-17.52-5.17-26.48-6.51c-15.89-2.39-28.87-7.38-30.14-26.23c0.35-4.4-0.97-8.46-2.06-12.68
			c-7.13-27.57-22.8-51.09-35.58-75.99c-0.61-5.19,2.53-9.08,4.75-13.22c6.55-12.23,13.16-24.42,19.93-36.52
			c6.06-10.82,0.81-19.46-5.76-27.15c-6.34-7.42-14.32-4.46-21.41-0.62C1242.96,707.64,1229.9,715.24,1216.74,722.68z"/>
		<path class="st3" d="M1064.86,1055.6c-77.07-1.39-133.4-59.75-131.8-136.57c1.56-75.14,60.31-131.69,135.48-130.42
			c73.77,1.25,132.33,62.52,131.1,137.17C1198.43,999.79,1139.1,1056.93,1064.86,1055.6z M1065.89,855.75
			c-35.49,0.16-66.66,31.3-66.56,66.49c0.1,35.1,31.49,66.6,66.6,66.85c35.72,0.25,67.26-31.62,66.85-67.55
			C1132.37,885.63,1101.82,855.59,1065.89,855.75z"/>
	</g>
</g>
</svg>
