<?xml version="1.0" encoding="utf-8"?>
<!-- Generator: Adobe Illustrator 25.0.1, SVG Export Plug-In . SVG Version: 6.00 Build 0)  -->
<svg version="1.1" xmlns="http://www.w3.org/2000/svg" xmlns:xlink="http://www.w3.org/1999/xlink" x="0px" y="0px"
	 viewBox="0 0 2000 2000" style="enable-background:new 0 0 2000 2000;" xml:space="preserve">
<style type="text/css">
	.st0{display:none;}
	.st1{display:inline;}
	.st2{fill:#E58A7B;}
	.st3{fill:#2C2C2C;}
</style>
<g id="Capa_1" class="st0">
	<g class="st1">
		<path class="st2" d="M1884,1116.62c0,8.97,0,17.94,0,26.91c-0.44,0.06-0.88,0.07-1.32,0.03c-0.42-8.98-0.43-17.97,0-26.95
			C1883.12,1116.59,1883.56,1116.6,1884,1116.62z"/>
		<path class="st2" d="M117.25,1084.64c0.93-3.55-0.58-7.5,1.77-10.82c0.59,8-0.08,15.92-1.32,23.82c-0.56-0.01-1.13-0.01-1.69-0.02
			c0-2.11,0-4.22,0-6.33C118.07,1089.39,117.38,1086.96,117.25,1084.64z"/>
		<path class="st2" d="M988.13,246.14c7.91,0,15.83,0,23.74,0c0.02,0.45,0.05,0.9,0.09,1.35c-7.97,0.01-15.95,0.02-23.92,0.02
			C988.1,247.06,988.13,246.6,988.13,246.14z"/>
		<path class="st2" d="M116.01,1141.94c0-7.39,0-14.77,0-22.16c0.54,0.01,1.08,0.01,1.62,0.02c-0.01,7.38-0.02,14.76-0.03,22.13
			C117.07,1141.94,116.54,1141.94,116.01,1141.94z"/>
		<path class="st2" d="M1882.68,1143.55c0.44,0.04,0.88,0.03,1.32-0.03c0,4.22,0,8.44,0,12.66l-0.66,0.1l-0.66-0.06
			C1882.2,1152,1882.32,1147.78,1882.68,1143.55z"/>
		<path class="st2" d="M116.01,1141.94c0.53,0,1.06,0,1.59-0.01c-0.01,3.7-0.01,7.39-0.02,11.09c-0.53,0.01-1.05,0.01-1.58,0
			C116.01,1149.33,116.01,1145.63,116.01,1141.94z"/>
		<path class="st2" d="M117.63,1119.8c-0.54-0.01-1.08-0.01-1.62-0.02c0-3.69,0-7.39,0-11.08c0.54,0.01,1.09,0.02,1.63,0.03
			C117.64,1112.43,117.63,1116.11,117.63,1119.8z"/>
		<path class="st2" d="M1884,1116.62c-0.44-0.02-0.88-0.03-1.32-0.02c-0.33-3.7-0.52-7.41,0.01-11.11c0.44-0.04,0.88-0.02,1.31,0.05
			C1884,1109.23,1884,1112.93,1884,1116.62z"/>
		<path class="st2" d="M383.5,1752.86c0.01-0.55,0.01-1.09,0.02-1.64c3.68-0.01,7.35-0.03,11.03-0.04c0.01,0.56,0.02,1.12,0.03,1.68
			C390.89,1752.86,387.2,1752.86,383.5,1752.86z"/>
		<path class="st2" d="M117.3,1175.53c-0.46-0.01-0.89-0.13-1.29-0.35c0-3.17,0-6.33,0-9.5c0.59-0.05,1.19-0.11,1.78-0.16
			c0,0-0.04-0.01-0.04-0.01C117.6,1168.85,117.45,1172.19,117.3,1175.53z"/>
		<path class="st2" d="M988.13,246.14c-0.01,0.46-0.04,0.92-0.09,1.38c-3.17-0.03-6.35-0.06-9.52-0.09
			c0.05-0.43,0.09-0.86,0.11-1.29C981.8,246.14,984.97,246.14,988.13,246.14z"/>
		<path class="st2" d="M1011.97,247.5c-0.05-0.45-0.08-0.9-0.09-1.35c3.17,0,6.33,0,9.5,0c-0.03,0.44,0,0.88,0.07,1.31
			C1018.29,247.47,1015.13,247.48,1011.97,247.5z"/>
		<path class="st2" d="M1029.29,246.14c3.17,0,6.33,0,9.5,0c-0.01,0.45,0.01,0.9,0.04,1.35c-3.16,0.52-6.32,0.26-9.47-0.07
			C1029.31,247,1029.28,246.57,1029.29,246.14z"/>
		<path class="st2" d="M1616.51,1751.31c0.03,0.52,0.02,1.03,0,1.55c-3.17,0-6.33,0-9.5,0c-0.01-0.53-0.01-1.05,0.01-1.58
			C1610.18,1751.29,1613.34,1751.3,1616.51,1751.31z"/>
		<path class="st2" d="M978.64,246.14c-0.02,0.43-0.05,0.86-0.11,1.29c-2.1,0.02-4.2,0.03-6.3,0.05c0.06-0.45,0.09-0.89,0.08-1.34
			C974.42,246.14,976.53,246.14,978.64,246.14z"/>
		<path class="st2" d="M972.31,246.14c0.01,0.45-0.01,0.9-0.08,1.34c-2.1,0-4.2-0.01-6.29-0.01c0.03-0.44,0.04-0.89,0.04-1.33
			C968.08,246.14,970.2,246.14,972.31,246.14z"/>
		<path class="st2" d="M965.97,246.14c0,0.45-0.01,0.89-0.04,1.33c-2.11,0-4.22,0-6.33,0c0.02-0.44,0.03-0.89,0.04-1.33
			C961.75,246.14,963.86,246.14,965.97,246.14z"/>
		<path class="st2" d="M116.01,1153.02c0.53,0.02,1.05,0.02,1.58,0c0.29,2.1,0.77,4.2,0.06,6.3c-0.55,0.01-1.09,0.02-1.64,0.02
			C116.01,1157.24,116.01,1155.13,116.01,1153.02z"/>
		<path class="st2" d="M959.64,246.14c-0.01,0.44-0.02,0.89-0.04,1.33c-2.11,0.02-4.21,0.03-6.32,0.05
			c0.03-0.46,0.04-0.92,0.03-1.38C955.42,246.14,957.53,246.14,959.64,246.14z"/>
		<path class="st2" d="M116.01,1159.35c0.55-0.01,1.09-0.02,1.64-0.02c0.35,2.06,0.81,4.11,0.14,6.2c-0.59,0.05-1.19,0.11-1.78,0.16
			C116.01,1163.57,116.01,1161.46,116.01,1159.35z"/>
		<path class="st2" d="M117.64,1108.74c-0.54-0.01-1.09-0.02-1.63-0.03c0-2.11,0-4.22,0-6.33c0.56,0.01,1.12,0.02,1.68,0.04
			C118.3,1104.52,117.86,1106.63,117.64,1108.74z"/>
		<path class="st2" d="M1038.82,247.5c-0.04-0.45-0.05-0.9-0.04-1.35c2.11,0,4.22,0,6.33,0c0.02,0.44,0.04,0.89,0.05,1.33
			C1043.05,247.49,1040.94,247.49,1038.82,247.5z"/>
		<path class="st2" d="M117.25,1084.64c0.13,2.32,0.82,4.74-1.24,6.65c0-2.11,0-4.22,0-6.33
			C116.41,1084.81,116.82,1084.71,117.25,1084.64z"/>
		<path class="st2" d="M117.69,1102.41c-0.56-0.01-1.12-0.02-1.68-0.04c0-1.58,0-3.17,0-4.75c0.56,0.01,1.13,0.01,1.69,0.02
			C118.26,1099.24,118.03,1100.82,117.69,1102.41z"/>
		<path class="st2" d="M1021.45,247.46c-0.08-0.43-0.1-0.87-0.07-1.31c1.58,0,3.17,0,4.75,0c-0.02,0.45,0,0.9,0.06,1.35
			C1024.6,247.48,1023.02,247.47,1021.45,247.46z"/>
		<path class="st2" d="M1026.18,247.49c-0.06-0.45-0.08-0.9-0.06-1.35c1.06,0,2.11,0,3.17,0c0,0.43,0.02,0.86,0.07,1.29
			C1028.3,247.45,1027.24,247.47,1026.18,247.49z"/>
		<path class="st2" d="M1026.18,247.49c1.06-0.02,2.11-0.04,3.17-0.06c3.16,0.33,6.31,0.59,9.47,0.07c2.11-0.01,4.23-0.01,6.34-0.02
			c35.54,2.04,70.93,5.58,106.04,11.54c71.91,12.21,141.54,32.34,208.33,61.73c168.08,73.96,300.31,189.21,395.93,345.98
			c50.6,82.95,85.55,172.34,106.52,267.22c10.54,47.7,17.01,95.94,19.98,144.66c0.54,8.94,0.5,17.91,0.73,26.87
			c-0.53,3.7-0.34,7.4-0.01,11.11c-0.43,8.98-0.41,17.97,0,26.95c-0.37,4.23-0.48,8.45,0,12.68c-0.38,18.71-1.41,37.37-3.1,56.01
			c-4.22,46.76-12.06,92.88-23.47,138.42c-23.36,93.2-60.82,180.3-112.68,261.19c-28.09,43.82-60.09,84.58-95.42,122.79
			c-8.64,9.35-19.31,14.31-31.5,16.66c-3.16-0.01-6.33-0.02-9.49-0.03c-3.05-0.79-6.16-1.4-9.15-2.39
			c-14.96-4.94-25.28-14.76-30.67-29.61c-11.71-32.22-25.26-63.62-42.16-93.47c-85.22-150.48-211.34-247.56-379.38-289.37
			c-60.02-14.93-121.06-19.65-182.81-15.93c-102.4,6.17-197.65,35.16-284.54,89.95c-105.07,66.25-180.75,157.68-229.88,271.41
			c-4.8,11.11-9.31,22.37-13.28,33.79c-6.62,19.03-19.06,31.14-39.12,34.92c-0.51,0.1-0.98,0.39-1.46,0.59
			c-3.68,0.01-7.35,0.03-11.03,0.04c-13.75-2.53-24.47-9.69-33.94-20.01c-96.17-104.79-162.66-225.89-200.32-362.92
			c-13.28-48.33-22.42-97.44-27.15-147.35c-1.14-12.06-2.09-24.14-3.13-36.21c0.29-6.45,0.55-12.9-1.23-19.22
			c0,0,0.04,0.01,0.04,0.01c0.67-2.08,0.2-4.14-0.14-6.2c0.71-2.11,0.23-4.21-0.06-6.3c0.01-3.7,0.01-7.39,0.02-11.09
			c0.01-7.38,0.02-14.76,0.03-22.13c0-3.69,0.01-7.38,0.01-11.06c0.21-2.11,0.66-4.21,0.04-6.33c0.35-1.59,0.58-3.17,0.01-4.76
			c1.24-7.9,1.91-15.82,1.32-23.82c6.18-92.32,25.06-181.87,58.41-268.28c46.43-120.32,115.68-225.56,208.72-314.95
			c104-99.91,225.87-168.94,364.2-209.07c44.56-12.93,89.95-22.09,136.04-27.81c22.25-2.76,44.57-4.46,66.9-6.2
			c2.11-0.02,4.21-0.03,6.32-0.05c2.11,0,4.22,0,6.33,0c2.1,0,4.2,0.01,6.29,0.01c2.1-0.02,4.2-0.03,6.3-0.05
			c3.17,0.03,6.35,0.06,9.52,0.09c7.97-0.01,15.95-0.01,23.92-0.02c3.16-0.01,6.32-0.03,9.48-0.04
			C1023.02,247.47,1024.6,247.48,1026.18,247.49z M1626.05,1614.09c1.55-1.9,2.57-3.09,3.53-4.34
			c45.3-58.78,82.05-122.47,109.63-191.39c36.53-91.29,55.17-186.13,55.95-284.43c0.38-47.3-3.8-94.23-12.09-140.83
			c-10.85-60.95-28.69-119.73-53.56-176.4c-41.93-95.56-100.77-179.42-175.2-252.41c-72.66-71.25-155.54-127.41-249.23-167.33
			c-87.66-37.35-179.2-57.9-274.4-61.71c-62.17-2.49-123.77,2.63-184.78,15.05c-80.61,16.41-156.77,44.72-228.33,85.22
			c-115.46,65.36-209.82,153.57-282.73,264.3C256.77,818.41,214,948.94,206.59,1090.77c-3.64,69.6,2.19,138.58,17.49,206.61
			c25.82,114.85,75.17,218.71,146.87,312.01c1.17,1.52,1.98,3.62,4.13,4.02c90.67-173.38,229.13-290.78,413.17-355.31
			c-0.95-2.36-3.44-3-5.35-4.29c-111.4-75.59-178.51-178.43-192.45-313.7c-4-38.84-0.95-77.43,7.59-115.52
			c16.9-75.37,52.44-140.95,105.66-196.64c69.19-72.41,153.02-116.83,253.09-128.98c52.85-6.42,104.84-1.71,155.54,14.1
			c109.19,34.06,192.11,101.56,247.93,200.99c54.62,97.29,67.06,200.55,34.27,307.64c-30.09,98.27-90.21,174.64-175.6,231.42
			c-2.32,1.54-5.31,2.38-6.44,5C1396.64,1322.66,1535.12,1440.05,1626.05,1614.09z M1317.09,905.33c-0.42-21.79-2.21-45.7-7.6-69.18
			c-24.11-104.91-84.69-179.93-184.58-221.16c-66.61-27.49-135.95-31.38-205.58-13.93c-101.35,25.4-173.07,86.8-212.52,183.87
			c-24.97,61.44-29.66,125.57-16.16,190.29c22.31,106.96,83.52,183.46,184.92,225.23c73.82,30.41,149.96,32.04,226.08,8.57
			c72.62-22.39,129.3-66.36,169.13-131.29C1302.75,1025.62,1316.65,968.38,1317.09,905.33z"/>
		<path class="st2" d="M117.75,1165.51c1.78,6.32,1.53,12.77,1.23,19.22c-2.14-2.78-0.99-6.16-1.68-9.2
			C117.45,1172.19,117.6,1168.85,117.75,1165.51z"/>
	</g>
</g>
<g id="Capa_2" class="st0">
	<g class="st1">
		<path class="st3" d="M1437.56,1791.07c-13.13-8.63-15.69-22.37-18.41-36.46c-9.23-47.84-18.95-95.58-29.35-147.74
			c-10.71,26.47-19.88,48.97-28.91,71.53c-11.56,28.9-23.36,57.7-34.29,86.84c-3.36,8.97-6.97,9.71-15.4,6.34
			c-34.85-13.9-35-13.61-21.29-47.95c26.12-65.4,52.21-130.81,78.53-196.13c3.12-7.73,4.7-15.35,4.68-23.72
			c-0.2-71.72,0.15-143.45-0.4-215.17c-0.09-11.2,2.2-14.58,14-14.33c35.45,0.75,35.46,0.16,35.46,35.61
			c0,40.47,1.54,81.02-0.36,121.4c-2.96,62.99,5.87,124.33,19.72,185.42c8.58,37.87,16.09,76.01,22.98,114.23
			c1.72,9.53,5.41,11.14,13.89,11.1c57.89-0.31,115.79-0.36,173.68,0.04c9.22,0.06,11.07-2.46,9.47-11.22
			c-27.12-147.85-54.21-295.71-80.83-443.66c-10.86-60.39-23.65-120.36-38.38-179.87c-13.49-54.5-48.26-90.23-101.97-106.55
			c-104.52-31.75-209.2-62.96-313.81-94.4c-19.46-5.85-24.05-11.75-24.07-31.62c-0.05-61.48,0.21-122.96-0.2-184.44
			c-0.09-13.17,4.66-22.39,15.4-29.57c22.68-15.16,43.29-32.67,59.62-54.81c15.67-21.26,23.88-44.89,23.56-71.44
			c-0.46-38.41,2.8-77.24-1.74-115.14C1189.26,337,1133.78,279.1,1051,269.01c-58.7-7.15-118.82-7.41-177.71,1.02
			c-56.9,8.15-108.93,59.63-113.88,112.11c-3.48,36.89-12.01,71.19-31.31,104.89c5.66,0.25,9.91,0.6,14.16,0.61
			c58.4,0.13,116.83-0.8,175.2,0.57c74.17,1.73,126.31,42.25,148.74,113.02c7.32,23.09,11.21,46.85,11.31,70.95
			c0.41,101.44,0.3,202.88,0.38,304.32c0,5.49,0,10.98,0,17.83c27.79-12.83,55.19-19.52,84.33-11.85
			c21.8,5.74,39.86,18.3,56.8,32.45c39.21,32.75,71.68,71.7,100.47,113.56c19.55,28.42,28.73,60.95,28.82,95.53
			c0.25,94.27,0.83,188.54-0.24,282.8c-0.52,45.77-22.95,80.06-64.13,100.44c-40.23,19.91-78.26,14.12-113.36-13.3
			c-30.65-23.94-61.26-47.94-92.01-71.77c-33.39-25.88-50.02-59.79-49.89-102.07c0.14-47.65-0.76-95.31,0.45-142.93
			c0.43-17.11-14.49-17.83-22.24-25.78c-5.9-6.06-9.23,5.02-14.53,6.81c-12.65,4.27-13.22,14-13.07,25.56
			c0.58,45.59,0.18,91.19,0.25,136.79c0.06,41.65-16.27,75.34-49.01,101c-31.02,24.31-62.13,48.5-93.27,72.66
			c-35.17,27.3-73.28,32.95-113.4,12.82c-41.01-20.58-63.3-54.84-63.75-100.69c-0.92-94.26-0.43-188.53-0.19-282.8
			c0.09-34.05,9.05-66.17,28.23-94.17c29.3-42.75,62.67-82.17,102.47-115.87c41.85-35.43,87-45.75,139.72-18.46
			c0-10.45,0.5-19.3-0.14-28.07c-0.63-8.6,0.81-12.37,11.18-12.38c38.15-0.03,38.15-0.52,38.15,37.53
			c0,34.84-0.33,69.68,0.17,104.51c0.19,13.16-4.57,22.47-15.59,29.41c-13.4,8.44-26.52,17.34-39.62,26.25
			c-16.11,10.96-22.43,27.35-17.75,45.28c3.86,14.83,16.52,25.91,31.52,27.6c15.97,1.8,29.02-6.61,38.45-24.74
			c2.12-4.08,3.94-8.4,6.62-12.09c10.76-14.79,31.07-14.74,41.69,0.21c3.22,4.54,5.22,9.93,7.91,14.87
			c8.48,15.56,22.23,23.87,37.24,21.67c15.54-2.28,26.13-11.04,30.81-26.27c4.95-16.11,0.47-33.13-12.58-42.93
			c-13.06-9.81-26.55-19.24-40.67-27.4c-14.05-8.12-19.31-18.93-19.26-35.13c0.45-135.25,0.21-270.51,0.3-405.76
			c0.02-23.15-1.83-46.02-8.25-68.34c-14.66-50.96-49.24-80.46-102.13-81.73c-72.71-1.74-145.49-0.48-218.24-0.81
			c-9.89-0.04-14.67,5.65-15.22,13.55c-0.64,9.12,6.65,11.38,14.77,11.22c10.24-0.2,20.5-0.25,30.74,0
			c18.09,0.44,27.44,9.6,27.7,27.5c0.28,19.46,0.62,38.96-0.16,58.39c-0.4,9.87,2.21,12.83,12.45,12.69
			c43.54-0.61,87.09-0.31,130.64-0.24c47.07,0.07,73.94,23.72,77.76,70.61c1.87,22.91,0.42,46.08,0.82,69.13
			c0.1,5.88-1.6,8.69-7.72,7.81c-0.5-0.07-1.02-0.03-1.54,0c-40.04,2.03-39.87,2.03-40.13-38.39c-0.09-14.28,1.48-28.64-1.69-42.87
			c-2.62-11.78-9.33-17.27-21.59-17.21c-46.62,0.23-93.24,0.3-139.86-0.07c-10.01-0.08-10,3.53-6.31,10.7
			c5.31,10.31,13.85,14.19,25.1,14.12c29.71-0.19,59.43-0.15,89.14-0.03c21.93,0.09,30.62,8.81,30.67,30.73
			c0.09,36.89,0.07,73.77,0,110.66c-0.04,19.51-4.69,25.86-24.18,31.71c-104.12,31.29-208.3,62.36-312.41,93.67
			c-57.64,17.34-92.08,56.44-105.66,114.45c-33.57,143.45-56.19,289.01-83.26,433.71c-11.09,59.3-21.33,118.77-32.69,178.02
			c-2.2,11.49-1.92,15.85,11.91,15.64c56.34-0.82,112.71-0.59,169.06-0.11c10.05,0.09,13.51-2.44,15.51-12.86
			c13.19-68.77,27.45-137.33,41.16-206c1.09-5.45,0.84-11.21,0.85-16.83c0.05-72.24,0.44-144.48-0.34-216.71
			c-0.14-13.33,3.78-15.73,16.06-15.41c33.47,0.87,33.49,0.28,33.49,34.48c0,64.55,0.09,129.11-0.1,193.66
			c-0.03,8.85,1.39,16.98,4.73,25.25c29.23,72.38,57.97,144.96,87.41,217.25c4.01,9.85,2.5,13.7-7.47,17.6
			c-33.79,13.21-33.65,13.62-47.07-20.1c-15.67-39.35-31.28-78.73-47-118.07c-1.83-4.59-4.13-8.99-7.53-16.31
			c-10.16,50.96-19.9,98.71-29.11,146.57c-2.71,14.09-5.34,27.78-18.41,36.43c-88.12,0-176.25,0-264.37,0
			c-14.02-10.07-16.36-22.62-13.19-39.73c32.64-176.46,64.02-353.15,96.67-529.61c8.27-44.67,18.1-89.21,30.28-132.96
			c18.78-67.47,63.1-112.84,129.83-133.68c95.98-29.97,192.54-58.11,289.03-86.38c13.14-3.85,19.58-8.59,18.05-23.68
			c-1.74-17.24-0.81-34.81-0.22-52.21c0.27-8.02-2.04-10.47-10.17-10.24c-20.48,0.58-40.98,0.29-61.47,0.16
			c-44.51-0.28-75.91-31.96-76.08-76.79c-0.11-28.18-0.35-56.36,0.18-84.53c0.16-8.59-2.1-11.19-10.91-11.03
			c-26.52,0.48-46.47-11.13-57.57-35.59c-11.21-24.7-4.9-46.58,11.87-66.81c24.97-30.1,47.03-61.99,54.45-101.48
			c1.97-10.5,1.59-21.44,3.39-31.99c14.09-82.81,85.06-149.01,174.28-155.86c58.52-4.49,117.89-5.96,176.43,1.49
			c102.25,13.02,182.99,100.81,188.23,203.93c2.1,41.39,2.3,83.08-0.05,124.44c-3.38,59.62-37.85,102.34-82.98,137.33
			c-10.67,8.27-15.33,16.35-15.04,30.1c0.95,44.55,0.58,89.14,0.17,133.7c-0.09,9.4,1.73,13.81,12.08,16.84
			c95.03,27.87,189.7,56.92,284.66,85.03c79.5,23.54,126.94,76.08,145.5,156.32c32.05,138.54,54.19,278.97,80.3,418.64
			c14.1,75.38,26.81,151.03,41.37,226.31c3.25,16.81-0.35,28.52-13.47,38.24C1613.8,1791.07,1525.68,1791.07,1437.56,1791.07z
			 M837.62,1225.44c-7.35,0-12.31,0-17.26,0c-38.96-0.02-38.96-0.02-37.59-39.29c0.02-0.51,0.07-1.04-0.01-1.54
			c-1.13-6.91,2.03-8.7,8.6-8.49c13.82,0.44,27.73-0.76,41.47,0.37c15.75,1.29,26-0.88,29.17-19.89
			c2.82-16.94,14.75-30.09,28.79-40.32c9.08-6.62,18.51-12.78,27.8-19.11c14.69-10.01,17.03-32.42,4.74-45.56
			c-25.35-27.1-61.08-30.53-91-7.88c-41.7,31.56-74.51,71.54-104.1,114.11c-12.72,18.31-18.94,39.89-19.02,62.28
			c-0.38,95.79-0.55,191.59,0.04,287.38c0.16,25.68,13.92,44.45,36.81,55.95c22.19,11.14,42.44,6.53,61.4-8.34
			c31-24.33,62.26-48.31,93.3-72.59c19.77-15.47,29.77-35.73,29.63-61.08c-0.21-39.96-0.8-79.93,0.29-119.86
			c0.48-17.69,0.05-31.76-22.25-33.94c-11.4-1.11-19.39-19.14-28.86-14c-9.29,5.04-13.29,19.81-19.61,30.31
			c-1.06,1.75-1.94,3.64-3.2,5.23c-20.9,26.51-26.94,56.31-25.67,89.99c0.86,22.89,4.81,40.4,23.09,55.8
			c20.93,17.64,19.78,19.01,0.01,38.78c-14.98,14.98-15.12,15.12-29.32,0.49c-4.17-4.3-7.33-9.59-12-15.82
			c-6.56,9.82-10.68,16.23-15.04,22.47c-6.41,9.18-11.78,24.01-19.85,25.72c-7.84,1.65-18.17-10.93-28.06-15.97
			c-10.95-5.57-11.73-10.96-4.16-20.6c24.94-31.74,46.09-65.08,37.05-108.56c-0.1-0.49-0.09-1.04,0-1.53
			c1.8-9.54-2.13-11.78-11.58-11.79c-40.23-0.04-40.02-0.38-37.83-40.55c0.37-6.78,2.15-8.72,8.77-8.51
			c14.33,0.45,28.68,0.2,43.03,0.1c3.88-0.03,7.85,0.95,10.63-3.79C809.16,1272.63,822.86,1250.07,837.62,1225.44z M1197.22,1461.41
			c-9.88,9.11-18.4,23.29-28,24.07c-9.91,0.81-17.18-15.43-26.58-23.09c-7.02-5.72-8.2-10.02-0.48-16.56
			c9.34-7.93,17.26-17.51,26.3-25.81c5.66-5.2,7.31-10.85,8.13-18.54c5.02-47.03-3.38-90.1-34.13-127.44
			c-3.22-3.9-5.92-8.44-7.91-13.1c-4.08-9.53-8.38-12.27-17.09-3.91c-7.78,7.48-17.86,12.58-28.48,14.11
			c-10.5,1.52-11.3,7.07-11.24,15.67c0.31,44.57,0.37,89.14,0.06,133.71c-0.18,25.93,9.73,46.49,30.18,62.31
			c30.36,23.49,60.77,46.92,90.77,70.86c19.73,15.75,40.68,21.5,63.96,9.49c23.87-12.32,36.42-32.34,36.46-59.42
			c0.11-92.73,0.08-185.46,0.01-278.19c-0.02-23.52-5.13-46.16-18.19-65.63c-29.79-44.4-63.82-85.32-106.98-117.56
			c-27.01-20.17-58.64-17.96-84.13,4.44c-18.87,16.58-17.74,38.85,2.99,52.36c21.1,13.76,42.04,27.36,52.42,52.1
			c3.43,8.19,0.96,20.53,9.58,24.15c7.85,3.3,18.15,0.78,27.36,0.82c2.05,0.01,4.1,0,6.15,0c37.98,0,37.7,0,37.29,38.28
			c-0.09,8.46-1.94,11.59-10.88,11.11c-13.96-0.76-27.99-0.2-44.06-0.2c8.14,13.72,16.52,24.41,21.28,36.53
			c12.07,30.72,32.63,44.33,65.65,37.34c3.43-0.73,7.16,0.08,10.74-0.13c4.52-0.28,6.41,1.49,6.28,6.14
			c-0.37,13.76,3.7,29.79-2.11,40.54c-4.17,7.73-21.73,1.61-33.28,2.52c-2.04,0.16-4.12,0.24-6.14-0.01
			c-6.02-0.75-7.55,1.82-7.86,7.74c-1.83,34.54,0.04,66.65,24.12,96.09c24.59,30.06,22.18,31.74-11.93,52.64
			c-6.35,3.89-9.18,3.31-13.05-2.88C1215.8,1488.21,1206.38,1474.95,1197.22,1461.41z"/>
		<path class="st3" d="M369.55,953.93c2.49-0.25,3.09-0.14,3.49-0.38c10.06-5.89,22.26-18.53,29.65-16.16
			c11.32,3.62,14.91,20.63,22.96,31.12c3.97,5.17,3.5,8.17-2.37,11.81c-23.01,14.25-45.73,28.98-68.48,43.65
			c-10.23,6.6-20.33,6.14-30.16-0.39c-21.28-14.13-42.25-28.72-63.69-42.6c-6.56-4.24-8.06-7.51-2.93-14.04
			c7.84-9.99,13.11-26.1,22.81-29.2c7.52-2.41,20.14,11.08,30.5,17.49c1.68,1.04,3.39,2.03,6.27,3.75
			c5.48-25.67,10.73-50.37,21.24-73.6c33.06-73.14,92.02-116.9,164.44-145.11c46.02-17.93,94.19-26.65,143.27-31.1
			c10.61-0.96,14.99,1.61,13.37,12.74c-1.74,11.94,5.58,28.17-3.08,34.96c-8.08,6.33-23.62,2.82-35.8,4.32
			c-65.93,8.13-128.02,26.54-180.26,69.8C402.39,862.77,378.8,903.38,369.55,953.93z"/>
		<path class="st3" d="M585.89,632.03c-1.3-2.92-1.87-4.31-2.53-5.65c-4.63-9.41-18.92-19.84-14.46-26.42
			c7.45-11,22.34-16.99,34.14-25.01c4.99-3.39,6.1,1.52,7.85,4.13c14.81,22.03,29.98,43.85,44.08,66.34
			c11.69,18.65,0.94,38.77-21.02,38.82c-134.47,0.33-248.2-61.36-284.57-216.62c-7.14-30.5-10.32-61.47-9.65-92.85
			c0.17-8.09,0.21-13.73,11.36-11.21c11.89,2.68,27.73-2.95,35.57,4.85c7.8,7.77,1.83,23.24,2.95,35.3
			c5.84,62.94,21.87,121.93,68.14,168.16C492.52,606.6,535.34,625.59,585.89,632.03z"/>
		<path class="st3" d="M955.66,856.56c23.86,0,23.86,0,23.86,23.79c0,25.39,0,25.39-25.33,25.39c-23.85,0-23.85,0-23.85-23.79
			C930.33,856.56,930.33,856.56,955.66,856.56z"/>
	</g>
</g>
<g id="Capa_3" class="st0">
	<g class="st1">
		<path class="st3" d="M1110.16,207.37c31.92,5.78,64.45,7.56,96.07,15.4c194.99,48.39,339.01,161.21,429.23,341.01
			c53.72,107.07,73.65,221.03,60.75,339.98c-15.36,141.64-72.18,265-169.4,369.27c-9.93,10.65-14.06,20.89-14,35.38
			c0.51,139.59,0.32,279.19,0.3,418.78c-0.01,48.24-20.48,68.58-68.96,68.58c-218.7,0.01-437.39,0.01-656.09,0
			c-47.59,0-68.23-20.47-68.28-67.68c-0.03-26.37-0.41-52.74,0.19-79.1c0.23-10.09-2.81-12.07-12.49-10.5
			c-32.62,5.29-65.37,13.49-98.09,13.6c-70.52,0.23-123.1-33.45-157.04-95.34c-14.75-26.9-19.81-56.2-19.63-86.7
			c0.27-46.01-0.09-92.03,0.19-138.04c0.05-9.1-1.39-13.51-12.4-14.24c-94.34-6.27-143.77-88.32-103.04-173.72
			c29.1-61.01,60.94-120.8,93.77-179.9c15.86-28.54,23.3-56.92,21.98-89.63c-3.92-97.26,10.98-191.67,50.49-281.21
			c77.3-175.17,207.53-292.88,388.36-354.7c46.58-15.93,94.67-25.49,143.91-28.76c3.51-0.23,6.94-1.63,10.41-2.49
			C1054.31,207.37,1082.23,207.37,1110.16,207.37z M1116.82,1684.69c89.45,0,178.9-0.3,268.35,0.32
			c13.45,0.09,17.19-2.99,17.12-16.9c-0.61-125.64,0.63-251.3-0.99-376.92c-0.45-34.87,10.19-60.47,34.97-84.87
			c85.04-83.77,134.01-186.37,148.34-304.62c14.68-121.18-9.69-234.86-75.58-337.87c-90.41-141.35-219.94-223.79-386.83-241.6
			C958.25,304.73,816.07,357,698.47,471.92c-86.41,84.45-135.99,188.31-150.44,308.64c-5.69,47.41-3.44,95-3.71,142.52
			c-0.1,17.46-3.69,33.45-11.93,48.98c-35.84,67.49-71.21,135.24-106.68,202.93c-3.35,6.39-6.29,13.01-9.16,19.63
			c-3.33,7.68-0.96,11.78,7.76,11.89c18.6,0.25,37.2,0.75,55.8,1c42.53,0.56,63.75,21.61,64.01,64.22
			c0.25,39.81-0.06,79.63,0.1,119.44c0.12,31.01-0.82,62.11,1.25,93.01c2.38,35.36,36.51,61.45,70.3,56.38
			c48.53-7.27,97.06-14.51,145.61-21.63c42.62-6.25,69.83,17.23,70.13,60.6c0.21,29.99,0.65,60-0.24,89.96
			c-0.37,12.43,3.61,15.52,15.65,15.46C936.88,1684.48,1026.85,1684.69,1116.82,1684.69z"/>
	</g>
</g>
<g id="Capa_4" class="st0">
	<g class="st1">
		<path class="st3" d="M259.43,970.93c0-13.65,0-24.88,0-36.1c0.01-126.88-0.35-253.75,0.17-380.63
			c0.29-71.01,52.2-121.54,119.01-118.09c16.32,0.84,33.44,14.52,45.45,9.56c12.1-5,15.58-26.31,26.66-38.27
			c53.21-57.39,146.62-44.11,182.46,27.1c6.18,12.28,10.46,13.77,22.87,9.28c56.88-20.56,112.66,2.17,140.7,56.35
			c4.11,7.95,5.71,13.29,18.2,8.85c78.62-27.89,152.38,22.48,152.92,106.67c1.31,204.07,0.83,408.15,0.11,612.22
			c-0.18,52.27-13.23,101.84-39.67,147.71c-11.46,19.88-29.27,32.93-45.53,47.73c-8.03,7.31-11.54,14.88-11.38,25.99
			c0.64,44.3,0.33,88.61,0.18,132.91c-0.02,6.65-0.42,13.43-1.8,19.91c-3.75,17.68-15.66,26.96-33.14,25.55
			c-17.4-1.4-28.45-12.24-28.96-30.34c-0.77-27.5-0.4-55.03-0.48-82.55c-0.03-10.74,1.39-21.7-0.24-32.19
			c-8.36-53.97,9.16-94.53,53.96-127.93c28.1-20.95,34.09-58.03,39.55-91.93c2.65-16.47,3.24-33.42,3.26-50.15
			c0.21-194,0.14-388.01,0.13-582.01c0-42.77-17.07-65.98-48.13-65.58c-30.99,0.4-47.24,23.15-47.25,66.54
			c-0.05,103.38-0.01,206.76-0.03,310.14c0,6.71,0.21,13.46-0.45,20.12c-1.81,18.05-12.84,28.45-30.1,29.38
			c-16.43,0.89-28.17-8.2-31.86-24.86c-1.72-7.74-1.94-15.93-1.95-23.91c-0.11-127.54-0.12-255.09-0.02-382.63
			c0.01-13.58-0.57-26.54-9.31-38.19c-12.81-17.07-34.13-25.29-53.01-19.28c-20.76,6.61-34.81,24.68-34.88,46.31
			c-0.37,128.88-0.55,257.77-0.75,386.66c-0.01,8.73,0.27,17.44-2.68,25.87c-5.36,15.31-16.74,23.05-32.25,21.8
			c-15.39-1.24-26.13-10.3-28.67-26.36c-1.14-7.23-0.84-14.72-0.84-22.1c-0.04-144.96-0.1-289.93,0.11-434.89
			c0.02-11.56-0.88-23.01-4.6-33.68c-6.37-18.24-29.15-31.5-48.15-29.53c-21.55,2.23-39.68,18.01-42.61,39.16
			c-1.83,13.21-1.38,26.77-1.37,40.18c0.12,140.97,0.34,281.94,0.61,422.91c0.02,9.44,0.46,18.96-4.45,27.45
			c-7.34,12.69-18.3,19.82-33.21,17.38c-14.38-2.35-24.54-10.55-26.73-25.8c-1.23-8.58-1.76-17.34-1.77-26.01
			c-0.11-122.85-0.05-245.69-0.11-368.54c-0.01-12,0.55-24.23-4.81-35.43c-8.44-17.64-29.46-29.14-47.82-26.62
			c-21.72,2.98-38.64,18.88-41.77,40.12c-1.17,7.92-1.07,16.06-1.07,24.1c-0.06,149.03-0.02,298.06-0.06,447.08
			c-0.01,43.79-22.7,57.21-60.26,35.51c-34.88-20.15-70.18-39.19-110.63-45.73c-6.57-1.06-13.46-2.07-19.95-1.21
			c-11.28,1.49-24.19,3.42-28.72,15.22c-3.51,9.16,7.07,14.91,12.15,21.3c64.36,81.06,108.91,172.78,147.9,267.98
			c28.06,68.52,72.88,124.64,136.68,164.04c13.34,8.24,19.53,19.62,19.51,34.95c-0.04,28.19,0.37,56.4-0.12,84.58
			c-0.41,23.76-13.13,38.59-32.04,38.87c-19.73,0.28-34.42-15.04-31.74-40.04c4.98-46.47-7.57-79.21-47.44-109.82
			c-60.07-46.12-93.93-114.15-120.78-184.4c-33.56-87.81-81.64-167-141.53-239.09c-13.21-15.9-15.2-31.67-8.56-50.25
			c17.1-47.82,60.81-73.82,114.87-67.46c22.69,2.67,44.75,7.89,65.69,17.54C231.49,960.16,244.57,964.9,259.43,970.93z"/>
		<path class="st3" d="M1741.69,971.05c35-14.47,66.96-29.83,102.72-34.18c58.88-7.17,108.12,23.92,120.13,76.23
			c3.29,14.34,1.2,26.41-8.15,37.44c-68.33,80.53-117.52,171.97-156.26,269.82c-30.21,76.31-77.41,140.59-144.86,188.7
			c-8.04,5.73-10.8,12.13-10.46,21.77c0.7,19.44,0.59,38.93,0.1,58.39c-0.6,23.68-13.36,38.54-32.26,38.66
			c-19.13,0.13-31.74-14.58-32-38.31c-0.32-28.86,0.08-57.73-0.13-86.59c-0.1-12.99,3.71-24.04,15.06-30.97
			c75.48-46.1,122.43-114.8,153.48-195.46c34.44-89.46,81.25-171.67,141.21-246.3c12.13-15.1,3.9-21.22-8.54-25.97
			c-22.92-8.75-45.04-1.17-66.64,5.87c-28.74,9.37-55.03,24.15-81.19,39.11c-33.61,19.23-56.58,6.26-56.61-32.15
			c-0.12-150.36-0.08-300.72,0.01-451.08c0.01-10.11-0.45-20.05-3.06-29.88c-5.78-21.81-27.95-37.68-49.65-35.32
			c-23.24,2.52-41.35,20.48-43.12,43.18c-0.57,7.34-0.25,14.76-0.25,22.14c-0.01,123.51,0.01,247.02-0.06,370.53
			c0,7.98,0.95,16.02-2.12,23.87c-6.03,15.39-16.64,24.55-33.52,22.96c-16.44-1.54-27.08-10.72-28.95-27.94
			c-0.86-7.97-1.49-16.01-1.48-24.02c0.28-143.63,0.6-287.26,1.16-430.89c0.05-12.22-0.69-24.37-4.92-35.61
			c-6.85-18.2-29.8-30.92-48.73-28.54c-20.75,2.61-38.05,17.88-41.62,37.92c-1.52,8.51-1.45,17.37-1.46,26.07
			c-0.08,143.64-0.06,287.28-0.06,430.92c0,4.7,0.18,9.41-0.04,14.09c-1.13,23.29-14.31,38.34-33.1,37.93
			c-19.1-0.41-31.18-15-31.24-39.12c-0.19-85.25,0.05-170.5-0.13-255.74c-0.09-44.28-0.55-88.56-1.14-132.83
			c-0.45-33.67-19.22-55.03-47.99-55.28c-29.16-0.25-49.91,22.52-49.96,56.11c-0.2,128.19-0.08,256.38-0.1,384.57
			c0,6.71,0.18,13.45-0.41,20.12c-1.6,18.05-12.44,28.7-29.69,29.81c-17.47,1.13-29.2-8.67-32.7-26.27
			c-1.42-7.14-1.56-14.63-1.57-21.96c-0.25-108.74-0.14-217.48-0.71-326.21c-0.17-31.58-19.54-51.94-46.8-51.66
			c-27.24,0.28-46.46,20.97-46.46,52.45c-0.01,209.42-0.57,418.85,1.29,628.26c0.44,49.17,16.04,95.63,58.7,126.62
			c28.88,20.98,39.45,47.26,37.19,82.92c-2.8,44.12-0.42,88.56-0.77,132.86c-0.19,24.35-11.86,38.87-30.78,39.98
			c-19.45,1.14-33.25-13.32-33.44-36.64c-0.39-46.98-0.31-93.97,0.02-140.96c0.07-9.88-1.08-18.05-9.66-24.69
			c-65.07-50.32-86.39-120.74-86.78-198.63c-1-203.38-0.79-406.77-0.15-610.16c0.27-85.17,73.17-136.05,153.14-108.01
			c8.58,3.01,11.47,3.11,16.11-5.59c31.84-59.72,83.85-80.53,146.43-58.59c8.71,3.05,11.57,3.59,16.04-5.82
			c20.54-43.18,55.23-67.31,103.33-66.99c47.08,0.31,81.29,23.69,101.73,66.29c3.53,7.36,5.08,10.58,15.5,6.89
			c82.57-29.3,155.83,22.86,156.23,111.34c0.6,130.89,0.16,261.78,0.17,392.68C1741.69,955.69,1741.69,962.18,1741.69,971.05z"/>
	</g>
</g>
<g id="Capa_5">
	<g>
		<path class="st3" d="M520.03,1104.45c-80.08,42.98-157.62,84.67-235.24,126.21c-28.47,15.23-32.33,14.32-50.95-10.99
			c-38.4-52.2-76.36-104.74-115.3-156.54c-10.5-13.96-11.42-26.35-4.06-41.82c59.95-126.07,120.14-252.03,178.81-378.7
			c37.17-80.25,104.87-123.74,182.12-155.75c82.55-34.21,165.59-67.35,249.16-98.95c43.87-16.59,69.66-44.12,73.68-91.91
			c1.96-23.25,7.82-46.16,11.68-69.27c2.43-14.53,10.74-21.66,25.44-21.66c109.75,0.02,219.51,0.06,329.26-0.05
			c15.9-0.02,23.99,8.02,26.51,23.13c3.85,23.11,9.55,46.04,11.57,69.3c4.1,47.06,29.99,74.04,72.89,90.23
			c77.81,29.35,154.88,60.66,232.19,91.32c39.12,15.52,76.68,34.11,111.25,58.33c38.05,26.66,67,60.7,86.86,103.05
			c59.55,127.01,119.68,253.75,180.04,380.37c7.35,15.43,7.1,27.8-3.47,41.89c-40.13,53.48-79.67,107.41-118.73,161.68
			c-11.83,16.43-23.54,19.74-41.89,9.66c-74.17-40.73-149.12-80.03-223.31-120.71c-15.91-8.73-19.53-5.67-22.14,11.63
			c-8.72,57.9-18.28,115.72-29.38,173.21c-15.67,81.11-11.22,162.01-1.21,243.12c9.03,73.19,24.11,145.61,27.76,219.47
			c1.43,29.02-4.44,35.01-34.1,35.01c-292.68,0.02-585.36,0.02-878.03,0c-30.59,0-36.06-6.15-34.41-36.72
			c3.84-71.07,16.66-141.04,27.07-211.23c15.48-104.4,10.77-207.54-10.53-310.53C534.65,1194.1,528.11,1150.49,520.03,1104.45z
			 M557.51,1058.58c10.61,61.36,19.75,120.6,31.28,179.36c18.33,93.37,26.87,187.05,14.5,281.86
			c-9.19,70.41-18.82,140.76-28.26,211.14c-1.48,11.05-4.43,20.28,14.2,20.24c274.09-0.63,548.17-0.51,822.26-0.17
			c12.6,0.02,16.84-2.3,14.78-15.84c-7.89-51.8-14.75-103.76-21.96-155.66c-13.05-93.98-19.54-187.9-2.26-282.26
			c14.39-78.56,27.06-157.42,40.66-237.15c-3.47,1.42-6.18,1.99-8.25,3.46c-59.25,42.3-126.63,50.98-196.9,47.89
			c-14.97-0.66-25.94-6.38-25.54-23.15c0.4-16.65,11.09-22.11,26.44-21.78c15.87,0.34,31.76,0.29,47.63-0.02
			c59.04-1.16,110.36-21.65,153.28-62.34c42.78-40.56,67.78-91.32,83.53-147.27c4.2-14.93,12.58-26.28,29.47-21.08
			c16.3,5.01,18.03,18.14,13.49,33.67c-11.29,38.57-25.85,75.86-49.23,108.53c-14.09,19.69-22.66,40.06-26.07,63.82
			c-1.77,12.31,0.89,18.33,11.93,24.15c72.42,38.21,144.57,76.93,216.46,116.13c11.23,6.12,16.95,5.61,24.75-5.46
			c28.99-41.14,58.72-81.79,89.38-121.7c9.34-12.16,9.76-21.51,3.31-34.99c-50.75-106.11-102.99-211.59-150.28-319.23
			c-38.52-87.69-101.72-144.69-189.9-178.29c-89.28-34.02-177.61-70.53-266.5-105.6c-34.3-13.53-54.76-38.75-63.07-73.74
			c-5.56-23.42-9.4-47.3-12.99-71.12c-2.28-15.12-5.87-22.99-25.04-22.61c-80.05,1.59-160.16,0.67-240.24,0.67
			c-36.26,0-36.28,0-42.88,34.61c-2.07,10.83-4.58,21.62-5.86,32.55c-6.41,54.77-35.13,89.12-87.81,108.4
			c-87.78,32.12-174.16,68.08-261,102.74c-67.4,26.9-124.26,68.16-156.72,134.12c-59.51,120.93-115.66,243.52-173.29,365.38
			c-3.12,6.6-4.1,11.92,0.99,18.75c32.96,44.23,65.5,88.77,97.87,133.44c5.54,7.65,10.04,8.42,18.59,3.77
			c74.35-40.43,149.02-80.3,223.6-120.3c4.81-2.58,11.3-4.42,9.39-11.53c-5.44-20.24-3.53-41.95-17.89-60.45
			c-28.15-36.27-45.89-78.1-58.62-122.11c-4.37-15.11-3.04-28.72,13.67-33.67c17.06-5.05,24.91,6.64,29.49,21.27
			c4.31,13.77,8.14,27.78,13.66,41.08c33.02,79.68,84.86,139.6,171.95,162.09c33.26,8.59,67.18,6.12,100.92,6.36
			c15.01,0.11,24.13,7.14,24.39,21.92c0.26,14.98-9.43,22.63-23.87,22.8c-34.46,0.4-68.85,0.96-103.02-6.21
			C624.39,1097.18,591.08,1080.3,557.51,1058.58z"/>
		<path class="st3" d="M999.78,978.95c9.44-0.69,16.21,4.02,20.57,11.49c19.28,33.05,44.74,58.91,80.82,73.71
			c13.13,5.39,15.95,17.28,10.38,29.39c-5.62,12.22-15.81,16.39-29.13,10.77c-27.75-11.7-52.35-27.96-70.89-51.81
			c-8.39-10.78-13-12.46-22.01-0.52c-17.77,23.56-41.98,39.34-68.7,51.41c-13.28,6-24.92,4.41-31.48-9.22
			c-6.91-14.35-1.74-25.21,13.1-31.44c33.02-13.86,57.1-37.67,75.23-68.04C982.71,986.22,988.4,978.45,999.78,978.95z"/>
		<path class="st3" d="M995.85,510.89c-30.87-2.24-57.33-19.45-78.52-45.44c-7.87-9.65-7.41-20.9,1.95-29.74
			c9.32-8.81,19.76-8.53,29.69-0.21c2.1,1.76,3.91,3.88,5.9,5.78c35.17,33.58,55.85,33.61,91.31-0.8
			c11.14-10.81,22.77-17.61,35.61-4.93c12.39,12.24,7.4,24.64-3.28,36.11C1055.4,496.44,1026.03,511.27,995.85,510.89z"/>
		<path class="st3" d="M1022.02,1550.36c-0.02,9.61,0.6,19.26-0.17,28.81c-1.07,13.18-9.76,19.65-22.21,19.4
			c-11.51-0.23-20.12-6.67-20.58-18.81c-0.78-20.55-0.81-41.18,0.09-61.72c0.53-12.19,9.66-18.44,20.93-18.45
			c12.22,0,20.97,6.7,21.83,19.9C1022.58,1529.73,1022.04,1540.06,1022.02,1550.36z"/>
		<path class="st3" d="M664.83,951.7c0,6.2,0.94,12.59-0.21,18.57c-2.02,10.48-8.71,16.95-19.82,17.74
			c-12.17,0.86-20.14-5.24-22.8-16.58c-3.01-12.8-2.53-26.1-0.32-39c2-11.66,10.35-18.43,21.89-17.98
			c12.29,0.48,20.44,7.64,21.49,20.71c0.44,5.48,0.07,11.03,0.07,16.55C665.03,951.7,664.93,951.7,664.83,951.7z"/>
		<path class="st3" d="M1335.81,951.3c0-5.51-0.39-11.05,0.08-16.52c1.12-13.08,9.29-20.21,21.65-20.33
			c11.39-0.11,19.98,6.46,21.34,18.41c1.24,10.88,1.41,22.03,0.66,32.96c-0.89,13.17-7.6,22.44-22.06,22.12
			c-15.26-0.34-21.82-9.63-21.88-24.25c-0.01-4.13,0-8.27,0-12.4C1335.68,951.3,1335.74,951.3,1335.81,951.3z"/>
	</g>
</g>
<g id="Capa_6" class="st0">
	<g class="st1">
		<path class="st3" d="M1804,1223.95c-9.33,32.9-25.08,61.26-55.71,79.21c-4.46,2.62-4.92,7.78-6.64,12.04
			c-13.99,34.63-39.07,57.21-74.6,68.06c-5.26,1.61-9.53,3.15-12.53,8.07c-21.54,35.45-54.98,50.14-94.62,51.34
			c-65.29,1.97-130.41-1.88-195.52-7.18c-59.11-4.81-117.66-19.84-177.59-11.05c-51.59,7.56-102.37,19.44-153.39,29.91
			c-127.14,26.09-254.34,52.23-383.2,68.12c-145.38,17.94-273.23-76.47-303.12-220.15c-47.63-228.99-95.68-457.9-143.52-686.85
			c-16.19-77.5,32-137.42,110.99-137.59c102.88-0.22,205.75-0.19,308.63,0c69.31,0.12,114.13,44.91,115.12,114.44
			c2.21,156.12,4.61,312.24,6.3,468.37c0.14,12.52,4.17,14.12,15.13,13.81c91.51-2.53,182.58,5.22,273.55,13.61
			c48.33,4.46,95.77,5.05,140.55-17.76c15.42-7.85,29.6-17.48,43.1-28.15c41.35-32.68,82.21-65.97,123.9-98.21
			c57.79-44.69,133.9-31.45,170.64,29.18c9.32,15.38,15.07,32.31,15.04,50.33c-0.02,11.38,4.23,13.56,14.7,12.98
			c30.23-1.68,60.52-2.63,90.79-3.2c53.88-1.02,95.42,18.6,116.72,71.23c0.95,2.35,2.16,5.19,4.12,6.47
			c27.59,18.02,41.83,45.01,51.17,75.36C1804,1198.88,1804,1211.41,1804,1223.95z M669.85,1159.42c0-5.41,0.07-11.11-0.01-16.8
			c-2.74-182.7-5.43-365.41-8.29-548.11c-0.48-30.81-11.04-40.74-42.07-40.75c-100.24-0.03-200.48-0.03-300.72,0
			c-34.22,0.01-46.84,15.23-39.99,48.06c46.93,224.82,94.98,449.42,140.35,674.56c24.24,120.32,124.45,186.19,234.09,169.56
			c154.61-23.45,307.82-54.2,460.79-86.25c50.24-10.52,100.79-18.23,152.18-12.12c83.45,9.92,166.93,19.07,251.11,19.1
			c16.68,0,33.48,0.02,50.01-1.86c20.22-2.3,30.55-20.07,22.63-37.4c-2.43-5.31-7.04-9.62-11.78-15.88
			c19.63,0,37.72,0.46,55.76-0.14c15.5-0.52,28.55-6.67,35.29-21.57c6.02-13.32,4.81-26.29-4.18-38.34
			c-1.9-2.55-6.59-3.64-5.19-8.32c51.15-1.94,64.1-8.48,66.82-33.81c0.98-9.11-1.28-17.2-6.56-24.92
			c-13.25-19.34-34.46-14.41-55.32-16.96c13.39-11.24,17.74-23.43,11.7-37.5c-6.33-14.73-19.35-19.45-34.31-20.05
			c-4.16-0.17-8.35,0.15-12.52,0.29c-73.05,2.36-146.09,4.71-219.14,7.11c-8.05,0.26-16.54,0.62-19.68-8.68
			c-2.81-8.31,3.21-13.46,9.03-18.26c12.08-9.96,24.39-19.67,35.97-30.18c14.72-13.36,18.4-29.76,11.12-44.89
			c-11.56-24.01-36.9-28.75-60.25-10.43c-42.26,33.18-84.11,66.89-126.18,100.32c-41.27,32.79-87.67,53.16-140.26,60.05
			c-47.25,6.19-93.76-1.91-140.45-5.38C876.82,1152.2,773.95,1144.12,669.85,1159.42z"/>
		<path class="st3" d="M463.08,969.22c0.23,21.24-11.77,36-29.41,38.39c-16.29,2.21-32.97-8.53-36.85-26.74
			c-8.99-42.2-16.6-84.69-24.64-127.08c-5.91-31.16-11.64-62.36-17.45-93.54c-4.3-23.11,6.62-41.04,27.35-44.9
			c19.5-3.63,35.76,9.09,40.12,32.05c13.49,71.01,26.78,142.05,40.08,213.09C462.95,964.06,462.96,967.75,463.08,969.22z"/>
		<path class="st3" d="M369.45,625.86c17.83,0.51,33.72,16.9,33.48,34.53c-0.25,18.43-17.58,34.81-35.74,33.78
			c-18.05-1.03-33.44-17.62-32.68-35.23C335.29,640.99,351.8,625.36,369.45,625.86z"/>
	</g>
</g>
</svg>
