<?xml version="1.0" encoding="utf-8"?>
<!-- Generator: Adobe Illustrator 25.0.1, SVG Export Plug-In . SVG Version: 6.00 Build 0)  -->
<svg version="1.1" id="Capa_1" xmlns="http://www.w3.org/2000/svg" xmlns:xlink="http://www.w3.org/1999/xlink" x="0px" y="0px"
	 viewBox="0 0 2000 2000" style="enable-background:new 0 0 2000 2000;" xml:space="preserve">
<style type="text/css">
	.st0{fill:#2C2C2C;}
</style>
<g>
	<path class="st0" d="M1884,1116.62c0,8.97,0,17.94,0,26.91c-0.44,0.06-0.88,0.07-1.32,0.03c-0.42-8.98-0.43-17.97,0-26.95
		C1883.12,1116.59,1883.56,1116.6,1884,1116.62z"/>
	<path class="st0" d="M117.25,1084.64c0.93-3.55-0.58-7.5,1.77-10.82c0.59,8-0.08,15.92-1.32,23.82c-0.56-0.01-1.13-0.01-1.69-0.02
		c0-2.11,0-4.22,0-6.33C118.07,1089.39,117.38,1086.96,117.25,1084.64z"/>
	<path class="st0" d="M988.13,246.14c7.91,0,15.83,0,23.74,0c0.02,0.45,0.05,0.9,0.09,1.35c-7.97,0.01-15.95,0.02-23.92,0.02
		C988.1,247.06,988.13,246.6,988.13,246.14z"/>
	<path class="st0" d="M116.01,1141.94c0-7.39,0-14.77,0-22.16c0.54,0.01,1.08,0.01,1.62,0.02c-0.01,7.38-0.02,14.76-0.03,22.13
		C117.07,1141.94,116.54,1141.94,116.01,1141.94z"/>
	<path class="st0" d="M1882.68,1143.55c0.44,0.04,0.88,0.03,1.32-0.03c0,4.22,0,8.44,0,12.66l-0.66,0.1l-0.66-0.06
		C1882.2,1152,1882.32,1147.78,1882.68,1143.55z"/>
	<path class="st0" d="M116.01,1141.94c0.53,0,1.06,0,1.59-0.01c-0.01,3.7-0.01,7.39-0.02,11.09c-0.53,0.01-1.05,0.01-1.58,0
		C116.01,1149.33,116.01,1145.63,116.01,1141.94z"/>
	<path class="st0" d="M117.63,1119.8c-0.54-0.01-1.08-0.01-1.62-0.02c0-3.69,0-7.39,0-11.08c0.54,0.01,1.09,0.02,1.63,0.03
		C117.64,1112.43,117.63,1116.11,117.63,1119.8z"/>
	<path class="st0" d="M1884,1116.62c-0.44-0.02-0.88-0.03-1.32-0.02c-0.33-3.7-0.52-7.41,0.01-11.11c0.44-0.04,0.88-0.02,1.31,0.05
		C1884,1109.23,1884,1112.93,1884,1116.62z"/>
	<path class="st0" d="M383.5,1752.86c0.01-0.55,0.01-1.09,0.02-1.64c3.68-0.01,7.35-0.03,11.03-0.04c0.01,0.56,0.02,1.12,0.03,1.68
		C390.89,1752.86,387.2,1752.86,383.5,1752.86z"/>
	<path class="st0" d="M117.3,1175.53c-0.46-0.01-0.89-0.13-1.29-0.35c0-3.17,0-6.33,0-9.5c0.59-0.05,1.19-0.11,1.78-0.16
		c0,0-0.04-0.01-0.04-0.01C117.6,1168.85,117.45,1172.19,117.3,1175.53z"/>
	<path class="st0" d="M988.13,246.14c-0.01,0.46-0.04,0.92-0.09,1.38c-3.17-0.03-6.35-0.06-9.52-0.09c0.05-0.43,0.09-0.86,0.11-1.29
		C981.8,246.14,984.97,246.14,988.13,246.14z"/>
	<path class="st0" d="M1011.97,247.5c-0.05-0.45-0.08-0.9-0.09-1.35c3.17,0,6.33,0,9.5,0c-0.03,0.44,0,0.88,0.07,1.31
		C1018.29,247.47,1015.13,247.48,1011.97,247.5z"/>
	<path class="st0" d="M1029.29,246.14c3.17,0,6.33,0,9.5,0c-0.01,0.45,0.01,0.9,0.04,1.35c-3.16,0.52-6.32,0.26-9.47-0.07
		C1029.31,247,1029.28,246.57,1029.29,246.14z"/>
	<path class="st0" d="M1616.51,1751.31c0.03,0.52,0.02,1.03,0,1.55c-3.17,0-6.33,0-9.5,0c-0.01-0.53-0.01-1.05,0.01-1.58
		C1610.18,1751.29,1613.34,1751.3,1616.51,1751.31z"/>
	<path class="st0" d="M978.64,246.14c-0.02,0.43-0.05,0.86-0.11,1.29c-2.1,0.02-4.2,0.03-6.3,0.05c0.06-0.45,0.09-0.89,0.08-1.34
		C974.42,246.14,976.53,246.14,978.64,246.14z"/>
	<path class="st0" d="M972.31,246.14c0.01,0.45-0.01,0.9-0.08,1.34c-2.1,0-4.2-0.01-6.29-0.01c0.03-0.44,0.04-0.89,0.04-1.33
		C968.08,246.14,970.2,246.14,972.31,246.14z"/>
	<path class="st0" d="M965.97,246.14c0,0.45-0.01,0.89-0.04,1.33c-2.11,0-4.22,0-6.33,0c0.02-0.44,0.03-0.89,0.04-1.33
		C961.75,246.14,963.86,246.14,965.97,246.14z"/>
	<path class="st0" d="M116.01,1153.02c0.53,0.02,1.05,0.02,1.58,0c0.29,2.1,0.77,4.2,0.06,6.3c-0.55,0.01-1.09,0.02-1.64,0.02
		C116.01,1157.24,116.01,1155.13,116.01,1153.02z"/>
	<path class="st0" d="M959.64,246.14c-0.01,0.44-0.02,0.89-0.04,1.33c-2.11,0.02-4.21,0.03-6.32,0.05c0.03-0.46,0.04-0.92,0.03-1.38
		C955.42,246.14,957.53,246.14,959.64,246.14z"/>
	<path class="st0" d="M116.01,1159.35c0.55-0.01,1.09-0.02,1.64-0.02c0.35,2.06,0.81,4.11,0.14,6.2c-0.59,0.05-1.19,0.11-1.78,0.16
		C116.01,1163.57,116.01,1161.46,116.01,1159.35z"/>
	<path class="st0" d="M117.64,1108.74c-0.54-0.01-1.09-0.02-1.63-0.03c0-2.11,0-4.22,0-6.33c0.56,0.01,1.12,0.02,1.68,0.04
		C118.3,1104.52,117.86,1106.63,117.64,1108.74z"/>
	<path class="st0" d="M1038.82,247.5c-0.04-0.45-0.05-0.9-0.04-1.35c2.11,0,4.22,0,6.33,0c0.02,0.44,0.04,0.89,0.05,1.33
		C1043.05,247.49,1040.94,247.49,1038.82,247.5z"/>
	<path class="st0" d="M117.25,1084.64c0.13,2.32,0.82,4.74-1.24,6.65c0-2.11,0-4.22,0-6.33
		C116.41,1084.81,116.82,1084.71,117.25,1084.64z"/>
	<path class="st0" d="M117.69,1102.41c-0.56-0.01-1.12-0.02-1.68-0.04c0-1.58,0-3.17,0-4.75c0.56,0.01,1.13,0.01,1.69,0.02
		C118.26,1099.24,118.03,1100.82,117.69,1102.41z"/>
	<path class="st0" d="M1021.45,247.46c-0.08-0.43-0.1-0.87-0.07-1.31c1.58,0,3.17,0,4.75,0c-0.02,0.45,0,0.9,0.06,1.35
		C1024.6,247.48,1023.02,247.47,1021.45,247.46z"/>
	<path class="st0" d="M1026.18,247.49c-0.06-0.45-0.08-0.9-0.06-1.35c1.06,0,2.11,0,3.17,0c0,0.43,0.02,0.86,0.07,1.29
		C1028.3,247.45,1027.24,247.47,1026.18,247.49z"/>
	<path class="st0" d="M1026.18,247.49c1.06-0.02,2.11-0.04,3.17-0.06c3.16,0.33,6.31,0.59,9.47,0.07c2.11-0.01,4.23-0.01,6.34-0.02
		c35.54,2.04,70.93,5.58,106.04,11.54c71.91,12.21,141.54,32.34,208.33,61.73c168.08,73.96,300.31,189.21,395.93,345.98
		c50.6,82.95,85.55,172.34,106.52,267.22c10.54,47.7,17.01,95.94,19.98,144.66c0.54,8.94,0.5,17.91,0.73,26.87
		c-0.53,3.7-0.34,7.4-0.01,11.11c-0.43,8.98-0.41,17.97,0,26.95c-0.37,4.23-0.48,8.45,0,12.68c-0.38,18.71-1.41,37.37-3.1,56.01
		c-4.22,46.76-12.06,92.88-23.47,138.42c-23.36,93.2-60.82,180.3-112.68,261.19c-28.09,43.82-60.09,84.58-95.42,122.79
		c-8.64,9.35-19.31,14.31-31.5,16.66c-3.16-0.01-6.33-0.02-9.49-0.03c-3.05-0.79-6.16-1.4-9.15-2.39
		c-14.96-4.94-25.28-14.76-30.67-29.61c-11.71-32.22-25.26-63.62-42.16-93.47c-85.22-150.48-211.34-247.56-379.38-289.37
		c-60.02-14.93-121.06-19.65-182.81-15.93c-102.4,6.17-197.65,35.16-284.54,89.95c-105.07,66.25-180.75,157.68-229.88,271.41
		c-4.8,11.11-9.31,22.37-13.28,33.79c-6.62,19.03-19.06,31.14-39.12,34.92c-0.51,0.1-0.98,0.39-1.46,0.59
		c-3.68,0.01-7.35,0.03-11.03,0.04c-13.75-2.53-24.47-9.69-33.94-20.01c-96.17-104.79-162.66-225.89-200.32-362.92
		c-13.28-48.33-22.42-97.44-27.15-147.35c-1.14-12.06-2.09-24.14-3.13-36.21c0.29-6.45,0.55-12.9-1.23-19.22
		c0,0,0.04,0.01,0.04,0.01c0.67-2.08,0.2-4.14-0.14-6.2c0.71-2.11,0.23-4.21-0.06-6.3c0.01-3.7,0.01-7.39,0.02-11.09
		c0.01-7.38,0.02-14.76,0.03-22.13c0-3.69,0.01-7.38,0.01-11.06c0.21-2.11,0.66-4.21,0.04-6.33c0.35-1.59,0.58-3.17,0.01-4.76
		c1.24-7.9,1.91-15.82,1.32-23.82c6.18-92.32,25.06-181.87,58.41-268.28c46.43-120.32,115.68-225.56,208.72-314.95
		c104-99.91,225.87-168.94,364.2-209.07c44.56-12.93,89.95-22.09,136.04-27.81c22.25-2.76,44.57-4.46,66.9-6.2
		c2.11-0.02,4.21-0.03,6.32-0.05c2.11,0,4.22,0,6.33,0c2.1,0,4.2,0.01,6.29,0.01c2.1-0.02,4.2-0.03,6.3-0.05
		c3.17,0.03,6.35,0.06,9.52,0.09c7.97-0.01,15.95-0.01,23.92-0.02c3.16-0.01,6.32-0.03,9.48-0.04
		C1023.02,247.47,1024.6,247.48,1026.18,247.49z M1626.05,1614.09c1.55-1.9,2.57-3.09,3.53-4.34
		c45.3-58.78,82.05-122.47,109.63-191.39c36.53-91.29,55.17-186.13,55.95-284.43c0.38-47.3-3.8-94.23-12.09-140.83
		c-10.85-60.95-28.69-119.73-53.56-176.4c-41.93-95.56-100.77-179.42-175.2-252.41c-72.66-71.25-155.54-127.41-249.23-167.33
		c-87.66-37.35-179.2-57.9-274.4-61.71c-62.17-2.49-123.77,2.63-184.78,15.05c-80.61,16.41-156.77,44.72-228.33,85.22
		c-115.46,65.36-209.82,153.57-282.73,264.3C256.77,818.41,214,948.94,206.59,1090.77c-3.64,69.6,2.19,138.58,17.49,206.61
		c25.82,114.85,75.17,218.71,146.87,312.01c1.17,1.52,1.98,3.62,4.13,4.02c90.67-173.38,229.13-290.78,413.17-355.31
		c-0.95-2.36-3.44-3-5.35-4.29c-111.4-75.59-178.51-178.43-192.45-313.7c-4-38.84-0.95-77.43,7.59-115.52
		c16.9-75.37,52.44-140.95,105.66-196.64c69.19-72.41,153.02-116.83,253.09-128.98c52.85-6.42,104.84-1.71,155.54,14.1
		c109.19,34.06,192.11,101.56,247.93,200.99c54.62,97.29,67.06,200.55,34.27,307.64c-30.09,98.27-90.21,174.64-175.6,231.42
		c-2.32,1.54-5.31,2.38-6.44,5C1396.64,1322.66,1535.12,1440.05,1626.05,1614.09z M1317.09,905.33c-0.42-21.79-2.21-45.7-7.6-69.18
		c-24.11-104.91-84.69-179.93-184.58-221.16c-66.61-27.49-135.95-31.38-205.58-13.93c-101.35,25.4-173.07,86.8-212.52,183.87
		c-24.97,61.44-29.66,125.57-16.16,190.29c22.31,106.96,83.52,183.46,184.92,225.23c73.82,30.41,149.96,32.04,226.08,8.57
		c72.62-22.39,129.3-66.36,169.13-131.29C1302.75,1025.62,1316.65,968.38,1317.09,905.33z"/>
	<path class="st0" d="M117.75,1165.51c1.78,6.32,1.53,12.77,1.23,19.22c-2.14-2.78-0.99-6.16-1.68-9.2
		C117.45,1172.19,117.6,1168.85,117.75,1165.51z"/>
</g>
</svg>
